ffmpeg started on 2025-03-25 at 14:49:39
Report written to "D:\Convert\FFMetrics\reports\vmaf_report-6.txt"
Log level: 32
Command line:
ffmpeg -hide_banner -nostdin -r 24000/1001 -i "G:\\\xc0\xed\xe8\xec\xe5\\\xce\xed\xe3\xee\xe8\xed\xe3\xe8\\!_35_\xcb\xe5\xf2\xee_2024\\DreamCast\\\xc0\xeb\xff \xe8\xed\xee\xe3\xe4\xe0 \xea\xee\xea\xe5\xf2\xed\xe8\xf7\xe0\xe5\xf2 \xf1\xee \xec\xed\xee\xe9 \xef\xee-\xf0\xf3\xf1\xf1\xea\xe8\\[DC] Roshidere - 01_Telegram_HEVC.mkv" -r 24000/1001 -i "G:\\\xc0\xed\xe8\xec\xe5\\\xce\xed\xe3\xee\xe8\xed\xe3\xe8\\!_35_\xcb\xe5\xf2\xee_2024\\DreamCast\\\xc0\xeb\xff \xe8\xed\xee\xe3\xe4\xe0 \xea\xee\xea\xe5\xf2\xed\xe8\xf7\xe0\xe5\xf2 \xf1\xee \xec\xed\xee\xe9 \xef\xee-\xf0\xf3\xf1\xf1\xea\xe8\\[DC] Roshidere - 01_Telegram.mp4" -lavfi "[0:v]settb=AVTB,setpts=PTS-STARTPTS,format=pix_fmts=yuv420p10,fps=24000/1001,scale=1920:1080:flags=bicubic[main];[1:v]settb=AVTB,setpts=PTS-STARTPTS,format=pix_fmts=yuv420p,fps=24000/1001,scale=1920:1080:flags=bicubic[ref];[main][ref]libvmaf=eof_action=endall:log_path='D\\:/Convert/FFMetrics/logs/vmaf_logfile-6.txt':n_threads=32:pool=Mean:model=version=vmaf_v0.6.1" -f null -
Input #0, matroska,webm, from 'G:\Аниме\Онгоинги\!_35_Лето_2024\DreamCast\Аля иногда кокетничает со мной по-русски\[DC] Roshidere - 01_Telegram_HEVC.mkv':
  Metadata:
    COMPATIBLE_BRANDS: isomiso2avc1mp41
    MAJOR_BRAND     : isom
    MINOR_VERSION   : 512
    ENCODER         : Lavf61.7.100
  Duration: 00:24:46.98, start: -0.021000, bitrate: 1244 kb/s
  Stream #0:0: Video: hevc (Main 10), yuv420p10le(tv, bt709, progressive), 1920x1080 [SAR 1:1 DAR 16:9], 23.98 fps, 23.98 tbr, 1k tbn (default)
      Metadata:
        HANDLER_NAME    : VideoHandler
        VENDOR_ID       : [0][0][0][0]
        ENCODER         : Lavc61.19.100 libx265
        BPS             : 1047117
        DURATION        : 00:24:46.443708333
        NUMBER_OF_FRAMES: 35639
        NUMBER_OF_BYTES : 194559978
        _STATISTICS_WRITING_APP: mkvpropedit v66.0.0 ('Josie') 64-bit
        _STATISTICS_WRITING_DATE_UTC: 2025-03-11 11:55:56
        _STATISTICS_TAGS: BPS DURATION NUMBER_OF_FRAMES NUMBER_OF_BYTES
  Stream #0:1: Audio: aac (LC), 48000 Hz, stereo, fltp (default)
      Metadata:
        HANDLER_NAME    : SoundHandler
        VENDOR_ID       : [0][0][0][0]
        ENCODER         : Lavc61.19.100 aac
        BPS             : 193223
        DURATION        : 00:24:46.976000000
        NUMBER_OF_FRAMES: 69703
        NUMBER_OF_BYTES : 35914785
        _STATISTICS_WRITING_APP: mkvpropedit v66.0.0 ('Josie') 64-bit
        _STATISTICS_WRITING_DATE_UTC: 2025-03-11 11:55:56
        _STATISTICS_TAGS: BPS DURATION NUMBER_OF_FRAMES NUMBER_OF_BYTES
Input #1, mov,mp4,m4a,3gp,3g2,mj2, from 'G:\Аниме\Онгоинги\!_35_Лето_2024\DreamCast\Аля иногда кокетничает со мной по-русски\[DC] Roshidere - 01_Telegram.mp4':
  Metadata:
    major_brand     : isom
    minor_version   : 512
    compatible_brands: isomiso2avc1mp41
    encoder         : Lavf60.16.100
  Duration: 00:24:46.92, start: 0.000000, bitrate: 3835 kb/s
  Stream #1:0[0x1](und): Video: h264 (High) (avc1 / 0x31637661), yuv420p(tv, bt709, progressive), 1920x1080 [SAR 1:1 DAR 16:9], 3689 kb/s, 23.98 fps, 23.98 tbr, 24k tbn (default)
      Metadata:
        handler_name    : VideoHandler
        vendor_id       : [0][0][0][0]
        encoder         : Lavc60.31.102 h264_qsv
  Stream #1:1[0x2](und): Audio: aac (HE-AACv2) (mp4a / 0x6134706D), 48000 Hz, stereo, fltp, 144 kb/s (default)
      Metadata:
        handler_name    : SoundHandler
        vendor_id       : [0][0][0][0]
Stream mapping:
  Stream #0:0 (hevc) -> settb:default
  Stream #1:0 (h264) -> settb:default
  libvmaf:default -> Stream #0:0 (wrapped_avframe)
  Stream #0:1 -> #0:1 (aac (native) -> pcm_s16le (native))
Output #0, null, to 'pipe:':
  Metadata:
    COMPATIBLE_BRANDS: isomiso2avc1mp41
    MAJOR_BRAND     : isom
    MINOR_VERSION   : 512
    encoder         : Lavf61.7.100
  Stream #0:0: Video: wrapped_avframe, yuv420p10le(tv, bt709, progressive), 1920x1080 [SAR 1:1 DAR 16:9], q=2-31, 200 kb/s, 23.98 fps, 23.98 tbn
      Metadata:
        encoder         : Lavc61.19.100 wrapped_avframe
  Stream #0:1: Audio: pcm_s16le, 48000 Hz, stereo, s16, 1536 kb/s (default)
      Metadata:
        HANDLER_NAME    : SoundHandler
        VENDOR_ID       : [0][0][0][0]
        _STATISTICS_TAGS: BPS DURATION NUMBER_OF_FRAMES NUMBER_OF_BYTES
        BPS             : 193223
        DURATION        : 00:24:46.976000000
        NUMBER_OF_FRAMES: 69703
        NUMBER_OF_BYTES : 35914785
        _STATISTICS_WRITING_APP: mkvpropedit v66.0.0 ('Josie') 64-bit
        _STATISTICS_WRITING_DATE_UTC: 2025-03-11 11:55:56
        encoder         : Lavc61.19.100 pcm_s16le
frame=   37 fps=0.0 q=-0.0 size=N/A time=00:00:01.54 bitrate=N/A speed=2.93x    frame=   84 fps= 80 q=-0.0 size=N/A time=00:00:03.50 bitrate=N/A speed=3.34x    frame=  130 fps= 83 q=-0.0 size=N/A time=00:00:05.42 bitrate=N/A speed=3.48x    frame=  176 fps= 84 q=-0.0 size=N/A time=00:00:07.34 bitrate=N/A speed=3.52x    frame=  220 fps= 85 q=-0.0 size=N/A time=00:00:09.17 bitrate=N/A speed=3.53x    frame=  266 fps= 85 q=-0.0 size=N/A time=00:00:11.09 bitrate=N/A speed=3.56x    frame=  309 fps= 85 q=-0.0 size=N/A time=00:00:12.88 bitrate=N/A speed=3.55x    frame=  355 fps= 86 q=-0.0 size=N/A time=00:00:14.80 bitrate=N/A speed=3.58x    frame=  400 fps= 86 q=-0.0 size=N/A time=00:00:16.68 bitrate=N/A speed=3.58x    frame=  444 fps= 86 q=-0.0 size=N/A time=00:00:18.51 bitrate=N/A speed=3.58x    frame=  490 fps= 86 q=-0.0 size=N/A time=00:00:20.43 bitrate=N/A speed= 3.6x    frame=  535 fps= 86 q=-0.0 size=N/A time=00:00:22.31 bitrate=N/A speed=3.59x    frame=  579 fps= 86 q=-0.0 size=N/A time=00:00:24.14 bitrate=N/A speed=3.59x    frame=  624 fps= 86 q=-0.0 size=N/A time=00:00:26.02 bitrate=N/A speed=3.59x    frame=  667 fps= 86 q=-0.0 size=N/A time=00:00:27.81 bitrate=N/A speed=3.59x    frame=  712 fps= 86 q=-0.0 size=N/A time=00:00:29.69 bitrate=N/A speed=3.59x    frame=  760 fps= 86 q=-0.0 size=N/A time=00:00:31.69 bitrate=N/A speed=3.61x    frame=  805 fps= 87 q=-0.0 size=N/A time=00:00:33.57 bitrate=N/A speed=3.61x    frame=  849 fps= 87 q=-0.0 size=N/A time=00:00:35.41 bitrate=N/A speed=3.61x    frame=  896 fps= 87 q=-0.0 size=N/A time=00:00:37.37 bitrate=N/A speed=3.62x    frame=  943 fps= 87 q=-0.0 size=N/A time=00:00:39.33 bitrate=N/A speed=3.63x    frame=  989 fps= 87 q=-0.0 size=N/A time=00:00:41.24 bitrate=N/A speed=3.63x    frame= 1035 fps= 87 q=-0.0 size=N/A time=00:00:43.16 bitrate=N/A speed=3.63x    frame= 1080 fps= 87 q=-0.0 size=N/A time=00:00:45.04 bitrate=N/A speed=3.63x    frame= 1126 fps= 87 q=-0.0 size=N/A time=00:00:46.96 bitrate=N/A speed=3.64x    frame= 1170 fps= 87 q=-0.0 size=N/A time=00:00:48.79 bitrate=N/A speed=3.64x    frame= 1215 fps= 87 q=-0.0 size=N/A time=00:00:50.67 bitrate=N/A speed=3.63x    frame= 1261 fps= 87 q=-0.0 size=N/A time=00:00:52.59 bitrate=N/A speed=3.64x    frame= 1307 fps= 87 q=-0.0 size=N/A time=00:00:54.51 bitrate=N/A speed=3.64x    frame= 1353 fps= 87 q=-0.0 size=N/A time=00:00:56.43 bitrate=N/A speed=3.64x    frame= 1398 fps= 87 q=-0.0 size=N/A time=00:00:58.30 bitrate=N/A speed=3.65x    frame= 1446 fps= 88 q=-0.0 size=N/A time=00:01:00.31 bitrate=N/A speed=3.65x    frame= 1492 fps= 88 q=-0.0 size=N/A time=00:01:02.22 bitrate=N/A speed=3.65x    frame= 1537 fps= 88 q=-0.0 size=N/A time=00:01:04.10 bitrate=N/A speed=3.65x    frame= 1584 fps= 88 q=-0.0 size=N/A time=00:01:06.06 bitrate=N/A speed=3.66x    frame= 1627 fps= 88 q=-0.0 size=N/A time=00:01:07.85 bitrate=N/A speed=3.65x    frame= 1672 fps= 88 q=-0.0 size=N/A time=00:01:09.73 bitrate=N/A speed=3.65x    frame= 1719 fps= 88 q=-0.0 size=N/A time=00:01:11.69 bitrate=N/A speed=3.65x    frame= 1764 fps= 88 q=-0.0 size=N/A time=00:01:13.57 bitrate=N/A speed=3.66x    frame= 1810 fps= 88 q=-0.0 size=N/A time=00:01:15.49 bitrate=N/A speed=3.66x    frame= 1857 fps= 88 q=-0.0 size=N/A time=00:01:17.45 bitrate=N/A speed=3.66x    frame= 1902 fps= 88 q=-0.0 size=N/A time=00:01:19.32 bitrate=N/A speed=3.66x    frame= 1948 fps= 88 q=-0.0 size=N/A time=00:01:21.24 bitrate=N/A speed=3.66x    frame= 1995 fps= 88 q=-0.0 size=N/A time=00:01:23.20 bitrate=N/A speed=3.66x    frame= 2041 fps= 88 q=-0.0 size=N/A time=00:01:25.12 bitrate=N/A speed=3.67x    frame= 2085 fps= 88 q=-0.0 size=N/A time=00:01:26.96 bitrate=N/A speed=3.66x    frame= 2129 fps= 88 q=-0.0 size=N/A time=00:01:28.79 bitrate=N/A speed=3.66x    frame= 2174 fps= 88 q=-0.0 size=N/A time=00:01:30.67 bitrate=N/A speed=3.66x    frame= 2222 fps= 88 q=-0.0 size=N/A time=00:01:32.67 bitrate=N/A speed=3.66x    frame= 2264 fps= 88 q=-0.0 size=N/A time=00:01:34.42 bitrate=N/A speed=3.66x    frame= 2308 fps= 88 q=-0.0 size=N/A time=00:01:36.26 bitrate=N/A speed=3.66x    frame= 2352 fps= 88 q=-0.0 size=N/A time=00:01:38.09 bitrate=N/A speed=3.66x    frame= 2398 fps= 88 q=-0.0 size=N/A time=00:01:40.01 bitrate=N/A speed=3.66x    frame= 2442 fps= 88 q=-0.0 size=N/A time=00:01:41.85 bitrate=N/A speed=3.65x    frame= 2485 fps= 88 q=-0.0 size=N/A time=00:01:43.64 bitrate=N/A speed=3.65x    frame= 2530 fps= 88 q=-0.0 size=N/A time=00:01:45.52 bitrate=N/A speed=3.65x    frame= 2573 fps= 88 q=-0.0 size=N/A time=00:01:47.31 bitrate=N/A speed=3.65x    frame= 2617 fps= 87 q=-0.0 size=N/A time=00:01:49.15 bitrate=N/A speed=3.65x    frame= 2661 fps= 87 q=-0.0 size=N/A time=00:01:50.98 bitrate=N/A speed=3.65x    frame= 2706 fps= 87 q=-0.0 size=N/A time=00:01:52.86 bitrate=N/A speed=3.65x    frame= 2751 fps= 87 q=-0.0 size=N/A time=00:01:54.73 bitrate=N/A speed=3.65x    frame= 2795 fps= 87 q=-0.0 size=N/A time=00:01:56.57 bitrate=N/A speed=3.64x    frame= 2838 fps= 87 q=-0.0 size=N/A time=00:01:58.36 bitrate=N/A speed=3.64x    frame= 2882 fps= 87 q=-0.0 size=N/A time=00:02:00.20 bitrate=N/A speed=3.64x    frame= 2926 fps= 87 q=-0.0 size=N/A time=00:02:02.03 bitrate=N/A speed=3.64x    frame= 2970 fps= 87 q=-0.0 size=N/A time=00:02:03.87 bitrate=N/A speed=3.64x    frame= 3014 fps= 87 q=-0.0 size=N/A time=00:02:05.70 bitrate=N/A speed=3.64x    frame= 3057 fps= 87 q=-0.0 size=N/A time=00:02:07.50 bitrate=N/A speed=3.63x    frame= 3101 fps= 87 q=-0.0 size=N/A time=00:02:09.33 bitrate=N/A speed=3.63x    frame= 3148 fps= 87 q=-0.0 size=N/A time=00:02:11.29 bitrate=N/A speed=3.64x    frame= 3191 fps= 87 q=-0.0 size=N/A time=00:02:13.09 bitrate=N/A speed=3.63x    frame= 3236 fps= 87 q=-0.0 size=N/A time=00:02:14.96 bitrate=N/A speed=3.63x    frame= 3280 fps= 87 q=-0.0 size=N/A time=00:02:16.80 bitrate=N/A speed=3.63x    frame= 3324 fps= 87 q=-0.0 size=N/A time=00:02:18.63 bitrate=N/A speed=3.63x    frame= 3368 fps= 87 q=-0.0 size=N/A time=00:02:20.47 bitrate=N/A speed=3.63x    frame= 3412 fps= 87 q=-0.0 size=N/A time=00:02:22.30 bitrate=N/A speed=3.63x    frame= 3458 fps= 87 q=-0.0 size=N/A time=00:02:24.22 bitrate=N/A speed=3.63x    frame= 3502 fps= 87 q=-0.0 size=N/A time=00:02:26.06 bitrate=N/A speed=3.63x    frame= 3547 fps= 87 q=-0.0 size=N/A time=00:02:27.93 bitrate=N/A speed=3.63x    frame= 3592 fps= 87 q=-0.0 size=N/A time=00:02:29.81 bitrate=N/A speed=3.63x    frame= 3637 fps= 87 q=-0.0 size=N/A time=00:02:31.69 bitrate=N/A speed=3.63x    frame= 3680 fps= 87 q=-0.0 size=N/A time=00:02:33.48 bitrate=N/A speed=3.63x    frame= 3723 fps= 87 q=-0.0 size=N/A time=00:02:35.28 bitrate=N/A speed=3.63x    frame= 3770 fps= 87 q=-0.0 size=N/A time=00:02:37.24 bitrate=N/A speed=3.63x    frame= 3815 fps= 87 q=-0.0 size=N/A time=00:02:39.11 bitrate=N/A speed=3.63x    frame= 3860 fps= 87 q=-0.0 size=N/A time=00:02:40.99 bitrate=N/A speed=3.63x    frame= 3905 fps= 87 q=-0.0 size=N/A time=00:02:42.87 bitrate=N/A speed=3.63x    frame= 3949 fps= 87 q=-0.0 size=N/A time=00:02:44.70 bitrate=N/A speed=3.63x    frame= 3996 fps= 87 q=-0.0 size=N/A time=00:02:46.66 bitrate=N/A speed=3.63x    frame= 4041 fps= 87 q=-0.0 size=N/A time=00:02:48.54 bitrate=N/A speed=3.63x    frame= 4085 fps= 87 q=-0.0 size=N/A time=00:02:50.37 bitrate=N/A speed=3.63x    frame= 4129 fps= 87 q=-0.0 size=N/A time=00:02:52.21 bitrate=N/A speed=3.63x    frame= 4173 fps= 87 q=-0.0 size=N/A time=00:02:54.04 bitrate=N/A speed=3.63x    frame= 4217 fps= 87 q=-0.0 size=N/A time=00:02:55.88 bitrate=N/A speed=3.63x    frame= 4261 fps= 87 q=-0.0 size=N/A time=00:02:57.71 bitrate=N/A speed=3.63x    frame= 4305 fps= 87 q=-0.0 size=N/A time=00:02:59.55 bitrate=N/A speed=3.63x    frame= 4351 fps= 87 q=-0.0 size=N/A time=00:03:01.47 bitrate=N/A speed=3.63x    frame= 4395 fps= 87 q=-0.0 size=N/A time=00:03:03.30 bitrate=N/A speed=3.63x    frame= 4442 fps= 87 q=-0.0 size=N/A time=00:03:05.26 bitrate=N/A speed=3.63x    frame= 4487 fps= 87 q=-0.0 size=N/A time=00:03:07.14 bitrate=N/A speed=3.63x    frame= 4530 fps= 87 q=-0.0 size=N/A time=00:03:08.93 bitrate=N/A speed=3.63x    frame= 4575 fps= 87 q=-0.0 size=N/A time=00:03:10.81 bitrate=N/A speed=3.63x    frame= 4618 fps= 87 q=-0.0 size=N/A time=00:03:12.60 bitrate=N/A speed=3.63x    frame= 4662 fps= 87 q=-0.0 size=N/A time=00:03:14.44 bitrate=N/A speed=3.62x    frame= 4706 fps= 87 q=-0.0 size=N/A time=00:03:16.27 bitrate=N/A speed=3.62x    frame= 4752 fps= 87 q=-0.0 size=N/A time=00:03:18.19 bitrate=N/A speed=3.62x    frame= 4795 fps= 87 q=-0.0 size=N/A time=00:03:19.99 bitrate=N/A speed=3.62x    frame= 4839 fps= 87 q=-0.0 size=N/A time=00:03:21.82 bitrate=N/A speed=3.62x    frame= 4884 fps= 87 q=-0.0 size=N/A time=00:03:23.70 bitrate=N/A speed=3.62x    frame= 4930 fps= 87 q=-0.0 size=N/A time=00:03:25.62 bitrate=N/A speed=3.62x    frame= 4974 fps= 87 q=-0.0 size=N/A time=00:03:27.45 bitrate=N/A speed=3.62x    frame= 5019 fps= 87 q=-0.0 size=N/A time=00:03:29.33 bitrate=N/A speed=3.62x    frame= 5065 fps= 87 q=-0.0 size=N/A time=00:03:31.25 bitrate=N/A speed=3.62x    frame= 5110 fps= 87 q=-0.0 size=N/A time=00:03:33.12 bitrate=N/A speed=3.63x    frame= 5155 fps= 87 q=-0.0 size=N/A time=00:03:35.00 bitrate=N/A speed=3.62x    frame= 5200 fps= 87 q=-0.0 size=N/A time=00:03:36.88 bitrate=N/A speed=3.62x    frame= 5245 fps= 87 q=-0.0 size=N/A time=00:03:38.76 bitrate=N/A speed=3.63x    frame= 5290 fps= 87 q=-0.0 size=N/A time=00:03:40.63 bitrate=N/A speed=3.62x    frame= 5335 fps= 87 q=-0.0 size=N/A time=00:03:42.51 bitrate=N/A speed=3.63x    frame= 5376 fps= 87 q=-0.0 size=N/A time=00:03:44.22 bitrate=N/A speed=3.62x    frame= 5421 fps= 87 q=-0.0 size=N/A time=00:03:46.10 bitrate=N/A speed=3.62x    frame= 5467 fps= 87 q=-0.0 size=N/A time=00:03:48.01 bitrate=N/A speed=3.62x    frame= 5513 fps= 87 q=-0.0 size=N/A time=00:03:49.93 bitrate=N/A speed=3.62x    frame= 5559 fps= 87 q=-0.0 size=N/A time=00:03:51.85 bitrate=N/A speed=3.63x    frame= 5603 fps= 87 q=-0.0 size=N/A time=00:03:53.69 bitrate=N/A speed=3.63x    frame= 5649 fps= 87 q=-0.0 size=N/A time=00:03:55.61 bitrate=N/A speed=3.63x    frame= 5694 fps= 87 q=-0.0 size=N/A time=00:03:57.48 bitrate=N/A speed=3.63x    frame= 5736 fps= 87 q=-0.0 size=N/A time=00:03:59.23 bitrate=N/A speed=3.62x    frame= 5780 fps= 87 q=-0.0 size=N/A time=00:04:01.07 bitrate=N/A speed=3.62x    frame= 5825 fps= 87 q=-0.0 size=N/A time=00:04:02.95 bitrate=N/A speed=3.62x    frame= 5871 fps= 87 q=-0.0 size=N/A time=00:04:04.86 bitrate=N/A speed=3.62x    frame= 5915 fps= 87 q=-0.0 size=N/A time=00:04:06.70 bitrate=N/A speed=3.62x    frame= 5959 fps= 87 q=-0.0 size=N/A time=00:04:08.53 bitrate=N/A speed=3.62x    frame= 6004 fps= 87 q=-0.0 size=N/A time=00:04:10.41 bitrate=N/A speed=3.62x    frame= 6047 fps= 87 q=-0.0 size=N/A time=00:04:12.21 bitrate=N/A speed=3.62x    frame= 6090 fps= 87 q=-0.0 size=N/A time=00:04:14.00 bitrate=N/A speed=3.62x    frame= 6135 fps= 87 q=-0.0 size=N/A time=00:04:15.88 bitrate=N/A speed=3.62x    frame= 6180 fps= 87 q=-0.0 size=N/A time=00:04:17.75 bitrate=N/A speed=3.62x    frame= 6223 fps= 87 q=-0.0 size=N/A time=00:04:19.55 bitrate=N/A speed=3.62x    frame= 6267 fps= 87 q=-0.0 size=N/A time=00:04:21.38 bitrate=N/A speed=3.62x    frame= 6311 fps= 87 q=-0.0 size=N/A time=00:04:23.22 bitrate=N/A speed=3.62x    frame= 6356 fps= 87 q=-0.0 size=N/A time=00:04:25.09 bitrate=N/A speed=3.62x    frame= 6399 fps= 87 q=-0.0 size=N/A time=00:04:26.89 bitrate=N/A speed=3.62x    frame= 6446 fps= 87 q=-0.0 size=N/A time=00:04:28.85 bitrate=N/A speed=3.62x    frame= 6491 fps= 87 q=-0.0 size=N/A time=00:04:30.72 bitrate=N/A speed=3.62x    frame= 6533 fps= 87 q=-0.0 size=N/A time=00:04:32.48 bitrate=N/A speed=3.62x    frame= 6578 fps= 87 q=-0.0 size=N/A time=00:04:34.35 bitrate=N/A speed=3.62x    frame= 6621 fps= 87 q=-0.0 size=N/A time=00:04:36.15 bitrate=N/A speed=3.62x    frame= 6664 fps= 87 q=-0.0 size=N/A time=00:04:37.94 bitrate=N/A speed=3.62x    frame= 6706 fps= 87 q=-0.0 size=N/A time=00:04:39.69 bitrate=N/A speed=3.62x    frame= 6749 fps= 87 q=-0.0 size=N/A time=00:04:41.48 bitrate=N/A speed=3.61x    frame= 6792 fps= 87 q=-0.0 size=N/A time=00:04:43.28 bitrate=N/A speed=3.61x    frame= 6838 fps= 87 q=-0.0 size=N/A time=00:04:45.20 bitrate=N/A speed=3.61x    frame= 6882 fps= 87 q=-0.0 size=N/A time=00:04:47.03 bitrate=N/A speed=3.61x    frame= 6926 fps= 87 q=-0.0 size=N/A time=00:04:48.87 bitrate=N/A speed=3.61x    frame= 6971 fps= 87 q=-0.0 size=N/A time=00:04:50.74 bitrate=N/A speed=3.61x    frame= 7015 fps= 87 q=-0.0 size=N/A time=00:04:52.58 bitrate=N/A speed=3.61x    frame= 7058 fps= 87 q=-0.0 size=N/A time=00:04:54.37 bitrate=N/A speed=3.61x    frame= 7102 fps= 87 q=-0.0 size=N/A time=00:04:56.21 bitrate=N/A speed=3.61x    frame= 7146 fps= 87 q=-0.0 size=N/A time=00:04:58.04 bitrate=N/A speed=3.61x    frame= 7190 fps= 87 q=-0.0 size=N/A time=00:04:59.88 bitrate=N/A speed=3.61x    frame= 7236 fps= 87 q=-0.0 size=N/A time=00:05:01.80 bitrate=N/A speed=3.61x    frame= 7283 fps= 87 q=-0.0 size=N/A time=00:05:03.76 bitrate=N/A speed=3.61x    frame= 7326 fps= 87 q=-0.0 size=N/A time=00:05:05.55 bitrate=N/A speed=3.61x    frame= 7370 fps= 87 q=-0.0 size=N/A time=00:05:07.39 bitrate=N/A speed=3.61x    frame= 7413 fps= 87 q=-0.0 size=N/A time=00:05:09.18 bitrate=N/A speed=3.61x    frame= 7458 fps= 87 q=-0.0 size=N/A time=00:05:11.06 bitrate=N/A speed=3.61x    frame= 7501 fps= 87 q=-0.0 size=N/A time=00:05:12.85 bitrate=N/A speed=3.61x    frame= 7545 fps= 87 q=-0.0 size=N/A time=00:05:14.68 bitrate=N/A speed=3.61x    frame= 7588 fps= 87 q=-0.0 size=N/A time=00:05:16.48 bitrate=N/A speed=3.61x    frame= 7631 fps= 87 q=-0.0 size=N/A time=00:05:18.27 bitrate=N/A speed=3.61x    frame= 7676 fps= 87 q=-0.0 size=N/A time=00:05:20.15 bitrate=N/A speed=3.61x    frame= 7720 fps= 87 q=-0.0 size=N/A time=00:05:21.98 bitrate=N/A speed=3.61x    frame= 7765 fps= 87 q=-0.0 size=N/A time=00:05:23.86 bitrate=N/A speed=3.61x    frame= 7812 fps= 87 q=-0.0 size=N/A time=00:05:25.82 bitrate=N/A speed=3.61x    frame= 7856 fps= 87 q=-0.0 size=N/A time=00:05:27.66 bitrate=N/A speed=3.61x    frame= 7902 fps= 87 q=-0.0 size=N/A time=00:05:29.57 bitrate=N/A speed=3.61x    frame= 7947 fps= 87 q=-0.0 size=N/A time=00:05:31.45 bitrate=N/A speed=3.61x    frame= 7993 fps= 87 q=-0.0 size=N/A time=00:05:33.37 bitrate=N/A speed=3.61x    frame= 8039 fps= 87 q=-0.0 size=N/A time=00:05:35.29 bitrate=N/A speed=3.61x    frame= 8084 fps= 87 q=-0.0 size=N/A time=00:05:37.17 bitrate=N/A speed=3.61x    frame= 8131 fps= 87 q=-0.0 size=N/A time=00:05:39.13 bitrate=N/A speed=3.61x    frame= 8176 fps= 87 q=-0.0 size=N/A time=00:05:41.00 bitrate=N/A speed=3.61x    frame= 8219 fps= 87 q=-0.0 size=N/A time=00:05:42.80 bitrate=N/A speed=3.61x    frame= 8264 fps= 87 q=-0.0 size=N/A time=00:05:44.67 bitrate=N/A speed=3.61x    frame= 8311 fps= 87 q=-0.0 size=N/A time=00:05:46.63 bitrate=N/A speed=3.61x    frame= 8353 fps= 87 q=-0.0 size=N/A time=00:05:48.38 bitrate=N/A speed=3.61x    frame= 8396 fps= 87 q=-0.0 size=N/A time=00:05:50.18 bitrate=N/A speed=3.61x    frame= 8440 fps= 87 q=-0.0 size=N/A time=00:05:52.01 bitrate=N/A speed=3.61x    frame= 8486 fps= 87 q=-0.0 size=N/A time=00:05:53.93 bitrate=N/A speed=3.61x    frame= 8529 fps= 87 q=-0.0 size=N/A time=00:05:55.73 bitrate=N/A speed=3.61x    frame= 8573 fps= 87 q=-0.0 size=N/A time=00:05:57.56 bitrate=N/A speed=3.61x    frame= 8618 fps= 87 q=-0.0 size=N/A time=00:05:59.44 bitrate=N/A speed=3.61x    frame= 8664 fps= 87 q=-0.0 size=N/A time=00:06:01.36 bitrate=N/A speed=3.61x    frame= 8708 fps= 87 q=-0.0 size=N/A time=00:06:03.19 bitrate=N/A speed=3.61x    frame= 8753 fps= 87 q=-0.0 size=N/A time=00:06:05.07 bitrate=N/A speed=3.61x    frame= 8799 fps= 87 q=-0.0 size=N/A time=00:06:06.99 bitrate=N/A speed=3.61x    frame= 8842 fps= 87 q=-0.0 size=N/A time=00:06:08.78 bitrate=N/A speed=3.61x    frame= 8888 fps= 87 q=-0.0 size=N/A time=00:06:10.70 bitrate=N/A speed=3.61x    frame= 8933 fps= 87 q=-0.0 size=N/A time=00:06:12.58 bitrate=N/A speed=3.61x    frame= 8977 fps= 87 q=-0.0 size=N/A time=00:06:14.41 bitrate=N/A speed=3.61x    frame= 9021 fps= 87 q=-0.0 size=N/A time=00:06:16.25 bitrate=N/A speed=3.61x    frame= 9067 fps= 87 q=-0.0 size=N/A time=00:06:18.16 bitrate=N/A speed=3.61x    frame= 9114 fps= 87 q=-0.0 size=N/A time=00:06:20.12 bitrate=N/A speed=3.61x    frame= 9157 fps= 87 q=-0.0 size=N/A time=00:06:21.92 bitrate=N/A speed=3.61x    frame= 9202 fps= 87 q=-0.0 size=N/A time=00:06:23.80 bitrate=N/A speed=3.61x    frame= 9247 fps= 87 q=-0.0 size=N/A time=00:06:25.67 bitrate=N/A speed=3.61x    frame= 9291 fps= 87 q=-0.0 size=N/A time=00:06:27.51 bitrate=N/A speed=3.61x    frame= 9336 fps= 87 q=-0.0 size=N/A time=00:06:29.38 bitrate=N/A speed=3.61x    frame= 9380 fps= 87 q=-0.0 size=N/A time=00:06:31.22 bitrate=N/A speed=3.61x    frame= 9426 fps= 87 q=-0.0 size=N/A time=00:06:33.14 bitrate=N/A speed=3.61x    frame= 9472 fps= 87 q=-0.0 size=N/A time=00:06:35.06 bitrate=N/A speed=3.61x    frame= 9518 fps= 87 q=-0.0 size=N/A time=00:06:36.97 bitrate=N/A speed=3.61x    frame= 9561 fps= 87 q=-0.0 size=N/A time=00:06:38.77 bitrate=N/A speed=3.61x    frame= 9605 fps= 87 q=-0.0 size=N/A time=00:06:40.60 bitrate=N/A speed=3.61x    frame= 9647 fps= 87 q=-0.0 size=N/A time=00:06:42.36 bitrate=N/A speed=3.61x    frame= 9693 fps= 87 q=-0.0 size=N/A time=00:06:44.27 bitrate=N/A speed=3.61x    frame= 9739 fps= 87 q=-0.0 size=N/A time=00:06:46.19 bitrate=N/A speed=3.61x    frame= 9784 fps= 87 q=-0.0 size=N/A time=00:06:48.07 bitrate=N/A speed=3.61x    frame= 9828 fps= 87 q=-0.0 size=N/A time=00:06:49.90 bitrate=N/A speed=3.61x    frame= 9874 fps= 87 q=-0.0 size=N/A time=00:06:51.82 bitrate=N/A speed=3.61x    frame= 9920 fps= 87 q=-0.0 size=N/A time=00:06:53.74 bitrate=N/A speed=3.61x    frame= 9966 fps= 87 q=-0.0 size=N/A time=00:06:55.66 bitrate=N/A speed=3.61x    frame=10009 fps= 87 q=-0.0 size=N/A time=00:06:57.45 bitrate=N/A speed=3.61x    frame=10054 fps= 87 q=-0.0 size=N/A time=00:06:59.33 bitrate=N/A speed=3.61x    frame=10098 fps= 87 q=-0.0 size=N/A time=00:07:01.17 bitrate=N/A speed=3.61x    frame=10142 fps= 87 q=-0.0 size=N/A time=00:07:03.00 bitrate=N/A speed=3.61x    frame=10185 fps= 87 q=-0.0 size=N/A time=00:07:04.79 bitrate=N/A speed=3.61x    frame=10229 fps= 87 q=-0.0 size=N/A time=00:07:06.63 bitrate=N/A speed=3.61x    frame=10272 fps= 87 q=-0.0 size=N/A time=00:07:08.42 bitrate=N/A speed=3.61x    frame=10317 fps= 87 q=-0.0 size=N/A time=00:07:10.30 bitrate=N/A speed=3.61x    frame=10361 fps= 87 q=-0.0 size=N/A time=00:07:12.14 bitrate=N/A speed=3.61x    frame=10407 fps= 87 q=-0.0 size=N/A time=00:07:14.05 bitrate=N/A speed=3.61x    frame=10451 fps= 87 q=-0.0 size=N/A time=00:07:15.89 bitrate=N/A speed=3.61x    frame=10495 fps= 87 q=-0.0 size=N/A time=00:07:17.72 bitrate=N/A speed=3.61x    frame=10540 fps= 87 q=-0.0 size=N/A time=00:07:19.60 bitrate=N/A speed=3.61x    frame=10586 fps= 87 q=-0.0 size=N/A time=00:07:21.52 bitrate=N/A speed=3.61x    frame=10630 fps= 87 q=-0.0 size=N/A time=00:07:23.35 bitrate=N/A speed=3.61x    frame=10677 fps= 87 q=-0.0 size=N/A time=00:07:25.31 bitrate=N/A speed=3.61x    frame=10720 fps= 87 q=-0.0 size=N/A time=00:07:27.11 bitrate=N/A speed=3.61x    frame=10765 fps= 87 q=-0.0 size=N/A time=00:07:28.99 bitrate=N/A speed=3.61x    frame=10808 fps= 87 q=-0.0 size=N/A time=00:07:30.78 bitrate=N/A speed=3.61x    frame=10855 fps= 87 q=-0.0 size=N/A time=00:07:32.74 bitrate=N/A speed=3.61x    frame=10895 fps= 87 q=-0.0 size=N/A time=00:07:34.41 bitrate=N/A speed=3.61x    frame=10940 fps= 87 q=-0.0 size=N/A time=00:07:36.28 bitrate=N/A speed=3.61x    frame=10984 fps= 87 q=-0.0 size=N/A time=00:07:38.12 bitrate=N/A speed=3.61x    frame=11026 fps= 87 q=-0.0 size=N/A time=00:07:39.87 bitrate=N/A speed=3.61x    frame=11071 fps= 87 q=-0.0 size=N/A time=00:07:41.75 bitrate=N/A speed=3.61x    frame=11114 fps= 87 q=-0.0 size=N/A time=00:07:43.54 bitrate=N/A speed=3.61x    frame=11159 fps= 87 q=-0.0 size=N/A time=00:07:45.42 bitrate=N/A speed=3.61x    frame=11204 fps= 87 q=-0.0 size=N/A time=00:07:47.30 bitrate=N/A speed=3.61x    frame=11249 fps= 87 q=-0.0 size=N/A time=00:07:49.17 bitrate=N/A speed=3.61x    frame=11294 fps= 87 q=-0.0 size=N/A time=00:07:51.05 bitrate=N/A speed=3.61x    frame=11339 fps= 87 q=-0.0 size=N/A time=00:07:52.93 bitrate=N/A speed=3.61x    frame=11386 fps= 87 q=-0.0 size=N/A time=00:07:54.89 bitrate=N/A speed=3.61x    frame=11430 fps= 87 q=-0.0 size=N/A time=00:07:56.72 bitrate=N/A speed=3.61x    frame=11476 fps= 87 q=-0.0 size=N/A time=00:07:58.64 bitrate=N/A speed=3.61x    frame=11520 fps= 87 q=-0.0 size=N/A time=00:08:00.48 bitrate=N/A speed=3.61x    frame=11562 fps= 87 q=-0.0 size=N/A time=00:08:02.23 bitrate=N/A speed=3.61x    frame=11606 fps= 87 q=-0.0 size=N/A time=00:08:04.06 bitrate=N/A speed=3.61x    frame=11650 fps= 87 q=-0.0 size=N/A time=00:08:05.90 bitrate=N/A speed=3.61x    frame=11695 fps= 87 q=-0.0 size=N/A time=00:08:07.77 bitrate=N/A speed=3.61x    frame=11740 fps= 87 q=-0.0 size=N/A time=00:08:09.65 bitrate=N/A speed=3.61x    frame=11785 fps= 87 q=-0.0 size=N/A time=00:08:11.53 bitrate=N/A speed=3.61x    frame=11827 fps= 87 q=-0.0 size=N/A time=00:08:13.28 bitrate=N/A speed=3.61x    frame=11873 fps= 87 q=-0.0 size=N/A time=00:08:15.20 bitrate=N/A speed=3.61x    frame=11919 fps= 87 q=-0.0 size=N/A time=00:08:17.12 bitrate=N/A speed=3.61x    frame=11963 fps= 87 q=-0.0 size=N/A time=00:08:18.95 bitrate=N/A speed=3.61x    frame=12008 fps= 87 q=-0.0 size=N/A time=00:08:20.83 bitrate=N/A speed=3.61x    frame=12052 fps= 87 q=-0.0 size=N/A time=00:08:22.66 bitrate=N/A speed=3.61x    frame=12094 fps= 87 q=-0.0 size=N/A time=00:08:24.42 bitrate=N/A speed=3.61x    frame=12140 fps= 87 q=-0.0 size=N/A time=00:08:26.33 bitrate=N/A speed=3.61x    frame=12182 fps= 87 q=-0.0 size=N/A time=00:08:28.09 bitrate=N/A speed=3.61x    frame=12225 fps= 87 q=-0.0 size=N/A time=00:08:29.88 bitrate=N/A speed=3.61x    frame=12270 fps= 87 q=-0.0 size=N/A time=00:08:31.76 bitrate=N/A speed=3.61x    frame=12317 fps= 87 q=-0.0 size=N/A time=00:08:33.72 bitrate=N/A speed=3.61x    frame=12361 fps= 87 q=-0.0 size=N/A time=00:08:35.55 bitrate=N/A speed=3.61x    frame=12404 fps= 87 q=-0.0 size=N/A time=00:08:37.35 bitrate=N/A speed=3.61x    frame=12449 fps= 87 q=-0.0 size=N/A time=00:08:39.22 bitrate=N/A speed=3.61x    frame=12494 fps= 87 q=-0.0 size=N/A time=00:08:41.10 bitrate=N/A speed=3.61x    frame=12538 fps= 87 q=-0.0 size=N/A time=00:08:42.93 bitrate=N/A speed=3.61x    frame=12585 fps= 87 q=-0.0 size=N/A time=00:08:44.89 bitrate=N/A speed=3.61x    frame=12629 fps= 87 q=-0.0 size=N/A time=00:08:46.73 bitrate=N/A speed=3.61x    frame=12674 fps= 87 q=-0.0 size=N/A time=00:08:48.61 bitrate=N/A speed=3.61x    frame=12718 fps= 87 q=-0.0 size=N/A time=00:08:50.44 bitrate=N/A speed=3.61x    frame=12761 fps= 87 q=-0.0 size=N/A time=00:08:52.24 bitrate=N/A speed=3.61x    frame=12804 fps= 86 q=-0.0 size=N/A time=00:08:54.03 bitrate=N/A speed=3.61x    frame=12848 fps= 86 q=-0.0 size=N/A time=00:08:55.86 bitrate=N/A speed=3.61x    frame=12892 fps= 86 q=-0.0 size=N/A time=00:08:57.70 bitrate=N/A speed=3.61x    frame=12935 fps= 86 q=-0.0 size=N/A time=00:08:59.49 bitrate=N/A speed=3.61x    frame=12981 fps= 86 q=-0.0 size=N/A time=00:09:01.41 bitrate=N/A speed=3.61x    frame=13021 fps= 86 q=-0.0 size=N/A time=00:09:03.08 bitrate=N/A speed=3.61x    frame=13066 fps= 86 q=-0.0 size=N/A time=00:09:04.96 bitrate=N/A speed=3.61x    frame=13111 fps= 86 q=-0.0 size=N/A time=00:09:06.83 bitrate=N/A speed=3.61x    frame=13154 fps= 86 q=-0.0 size=N/A time=00:09:08.63 bitrate=N/A speed=3.61x    frame=13198 fps= 86 q=-0.0 size=N/A time=00:09:10.46 bitrate=N/A speed=3.61x    frame=13244 fps= 86 q=-0.0 size=N/A time=00:09:12.38 bitrate=N/A speed=3.61x    frame=13289 fps= 86 q=-0.0 size=N/A time=00:09:14.26 bitrate=N/A speed=3.61x    frame=13333 fps= 86 q=-0.0 size=N/A time=00:09:16.09 bitrate=N/A speed=3.61x    frame=13378 fps= 86 q=-0.0 size=N/A time=00:09:17.97 bitrate=N/A speed=3.61x    frame=13423 fps= 86 q=-0.0 size=N/A time=00:09:19.85 bitrate=N/A speed=3.61x    frame=13466 fps= 86 q=-0.0 size=N/A time=00:09:21.64 bitrate=N/A speed=3.61x    frame=13511 fps= 86 q=-0.0 size=N/A time=00:09:23.52 bitrate=N/A speed=3.61x    frame=13556 fps= 86 q=-0.0 size=N/A time=00:09:25.39 bitrate=N/A speed=3.61x    frame=13598 fps= 86 q=-0.0 size=N/A time=00:09:27.14 bitrate=N/A speed=3.61x    frame=13645 fps= 86 q=-0.0 size=N/A time=00:09:29.11 bitrate=N/A speed=3.61x    frame=13688 fps= 86 q=-0.0 size=N/A time=00:09:30.90 bitrate=N/A speed=3.61x    frame=13734 fps= 86 q=-0.0 size=N/A time=00:09:32.82 bitrate=N/A speed=3.61x    frame=13780 fps= 86 q=-0.0 size=N/A time=00:09:34.74 bitrate=N/A speed=3.61x    frame=13823 fps= 86 q=-0.0 size=N/A time=00:09:36.53 bitrate=N/A speed=3.61x    frame=13868 fps= 86 q=-0.0 size=N/A time=00:09:38.41 bitrate=N/A speed=3.61x    frame=13909 fps= 86 q=-0.0 size=N/A time=00:09:40.12 bitrate=N/A speed=3.61x    frame=13955 fps= 86 q=-0.0 size=N/A time=00:09:42.03 bitrate=N/A speed=3.61x    frame=14002 fps= 86 q=-0.0 size=N/A time=00:09:44.00 bitrate=N/A speed=3.61x    frame=14045 fps= 86 q=-0.0 size=N/A time=00:09:45.79 bitrate=N/A speed=3.61x    frame=14090 fps= 86 q=-0.0 size=N/A time=00:09:47.67 bitrate=N/A speed=3.61x    frame=14135 fps= 86 q=-0.0 size=N/A time=00:09:49.54 bitrate=N/A speed=3.61x    frame=14179 fps= 86 q=-0.0 size=N/A time=00:09:51.38 bitrate=N/A speed=3.61x    frame=14224 fps= 86 q=-0.0 size=N/A time=00:09:53.25 bitrate=N/A speed=3.61x    frame=14269 fps= 86 q=-0.0 size=N/A time=00:09:55.13 bitrate=N/A speed=3.61x    frame=14310 fps= 86 q=-0.0 size=N/A time=00:09:56.84 bitrate=N/A speed=3.61x    frame=14353 fps= 86 q=-0.0 size=N/A time=00:09:58.63 bitrate=N/A speed= 3.6x    frame=14393 fps= 86 q=-0.0 size=N/A time=00:10:00.30 bitrate=N/A speed= 3.6x    frame=14439 fps= 86 q=-0.0 size=N/A time=00:10:02.22 bitrate=N/A speed= 3.6x    frame=14484 fps= 86 q=-0.0 size=N/A time=00:10:04.10 bitrate=N/A speed= 3.6x    frame=14527 fps= 86 q=-0.0 size=N/A time=00:10:05.89 bitrate=N/A speed= 3.6x    frame=14570 fps= 86 q=-0.0 size=N/A time=00:10:07.69 bitrate=N/A speed= 3.6x    frame=14617 fps= 86 q=-0.0 size=N/A time=00:10:09.65 bitrate=N/A speed= 3.6x    frame=14662 fps= 86 q=-0.0 size=N/A time=00:10:11.52 bitrate=N/A speed= 3.6x    frame=14707 fps= 86 q=-0.0 size=N/A time=00:10:13.40 bitrate=N/A speed= 3.6x    frame=14754 fps= 86 q=-0.0 size=N/A time=00:10:15.36 bitrate=N/A speed= 3.6x    frame=14799 fps= 86 q=-0.0 size=N/A time=00:10:17.24 bitrate=N/A speed= 3.6x    frame=14843 fps= 86 q=-0.0 size=N/A time=00:10:19.07 bitrate=N/A speed= 3.6x    frame=14885 fps= 86 q=-0.0 size=N/A time=00:10:20.82 bitrate=N/A speed= 3.6x    frame=14929 fps= 86 q=-0.0 size=N/A time=00:10:22.66 bitrate=N/A speed= 3.6x    frame=14971 fps= 86 q=-0.0 size=N/A time=00:10:24.41 bitrate=N/A speed= 3.6x    frame=15015 fps= 86 q=-0.0 size=N/A time=00:10:26.25 bitrate=N/A speed= 3.6x    frame=15057 fps= 86 q=-0.0 size=N/A time=00:10:28.00 bitrate=N/A speed= 3.6x    frame=15101 fps= 86 q=-0.0 size=N/A time=00:10:29.83 bitrate=N/A speed= 3.6x    frame=15145 fps= 86 q=-0.0 size=N/A time=00:10:31.67 bitrate=N/A speed= 3.6x    frame=15189 fps= 86 q=-0.0 size=N/A time=00:10:33.50 bitrate=N/A speed= 3.6x    frame=15235 fps= 86 q=-0.0 size=N/A time=00:10:35.42 bitrate=N/A speed= 3.6x    frame=15279 fps= 86 q=-0.0 size=N/A time=00:10:37.26 bitrate=N/A speed= 3.6x    frame=15323 fps= 86 q=-0.0 size=N/A time=00:10:39.09 bitrate=N/A speed= 3.6x    frame=15368 fps= 86 q=-0.0 size=N/A time=00:10:40.97 bitrate=N/A speed= 3.6x    frame=15412 fps= 86 q=-0.0 size=N/A time=00:10:42.80 bitrate=N/A speed= 3.6x    frame=15457 fps= 86 q=-0.0 size=N/A time=00:10:44.68 bitrate=N/A speed= 3.6x    frame=15504 fps= 86 q=-0.0 size=N/A time=00:10:46.64 bitrate=N/A speed= 3.6x    frame=15548 fps= 86 q=-0.0 size=N/A time=00:10:48.48 bitrate=N/A speed= 3.6x    frame=15594 fps= 86 q=-0.0 size=N/A time=00:10:50.39 bitrate=N/A speed= 3.6x    frame=15637 fps= 86 q=-0.0 size=N/A time=00:10:52.19 bitrate=N/A speed= 3.6x    frame=15678 fps= 86 q=-0.0 size=N/A time=00:10:53.90 bitrate=N/A speed= 3.6x    frame=15719 fps= 86 q=-0.0 size=N/A time=00:10:55.61 bitrate=N/A speed= 3.6x    frame=15764 fps= 86 q=-0.0 size=N/A time=00:10:57.49 bitrate=N/A speed= 3.6x    frame=15807 fps= 86 q=-0.0 size=N/A time=00:10:59.28 bitrate=N/A speed= 3.6x    frame=15853 fps= 86 q=-0.0 size=N/A time=00:11:01.20 bitrate=N/A speed= 3.6x    frame=15898 fps= 86 q=-0.0 size=N/A time=00:11:03.07 bitrate=N/A speed= 3.6x    frame=15943 fps= 86 q=-0.0 size=N/A time=00:11:04.95 bitrate=N/A speed= 3.6x    frame=15988 fps= 86 q=-0.0 size=N/A time=00:11:06.83 bitrate=N/A speed= 3.6x    frame=16032 fps= 86 q=-0.0 size=N/A time=00:11:08.66 bitrate=N/A speed= 3.6x    frame=16074 fps= 86 q=-0.0 size=N/A time=00:11:10.41 bitrate=N/A speed= 3.6x    frame=16118 fps= 86 q=-0.0 size=N/A time=00:11:12.25 bitrate=N/A speed= 3.6x    frame=16164 fps= 86 q=-0.0 size=N/A time=00:11:14.17 bitrate=N/A speed= 3.6x    frame=16207 fps= 86 q=-0.0 size=N/A time=00:11:15.96 bitrate=N/A speed= 3.6x    frame=16253 fps= 86 q=-0.0 size=N/A time=00:11:17.88 bitrate=N/A speed= 3.6x    frame=16298 fps= 86 q=-0.0 size=N/A time=00:11:19.76 bitrate=N/A speed= 3.6x    frame=16341 fps= 86 q=-0.0 size=N/A time=00:11:21.55 bitrate=N/A speed= 3.6x    frame=16385 fps= 86 q=-0.0 size=N/A time=00:11:23.39 bitrate=N/A speed= 3.6x    frame=16429 fps= 86 q=-0.0 size=N/A time=00:11:25.22 bitrate=N/A speed= 3.6x    frame=16474 fps= 86 q=-0.0 size=N/A time=00:11:27.10 bitrate=N/A speed= 3.6x    frame=16521 fps= 86 q=-0.0 size=N/A time=00:11:29.06 bitrate=N/A speed= 3.6x    frame=16566 fps= 86 q=-0.0 size=N/A time=00:11:30.94 bitrate=N/A speed= 3.6x    frame=16610 fps= 86 q=-0.0 size=N/A time=00:11:32.77 bitrate=N/A speed= 3.6x    frame=16655 fps= 86 q=-0.0 size=N/A time=00:11:34.65 bitrate=N/A speed= 3.6x    frame=16698 fps= 86 q=-0.0 size=N/A time=00:11:36.44 bitrate=N/A speed= 3.6x    frame=16744 fps= 86 q=-0.0 size=N/A time=00:11:38.36 bitrate=N/A speed= 3.6x    frame=16790 fps= 86 q=-0.0 size=N/A time=00:11:40.28 bitrate=N/A speed= 3.6x    frame=16835 fps= 86 q=-0.0 size=N/A time=00:11:42.15 bitrate=N/A speed= 3.6x    frame=16878 fps= 86 q=-0.0 size=N/A time=00:11:43.95 bitrate=N/A speed= 3.6x    frame=16922 fps= 86 q=-0.0 size=N/A time=00:11:45.78 bitrate=N/A speed= 3.6x    frame=16967 fps= 86 q=-0.0 size=N/A time=00:11:47.66 bitrate=N/A speed= 3.6x    frame=17010 fps= 86 q=-0.0 size=N/A time=00:11:49.45 bitrate=N/A speed= 3.6x    frame=17055 fps= 86 q=-0.0 size=N/A time=00:11:51.33 bitrate=N/A speed= 3.6x    frame=17099 fps= 86 q=-0.0 size=N/A time=00:11:53.17 bitrate=N/A speed= 3.6x    frame=17142 fps= 86 q=-0.0 size=N/A time=00:11:54.96 bitrate=N/A speed= 3.6x    frame=17186 fps= 86 q=-0.0 size=N/A time=00:11:56.79 bitrate=N/A speed= 3.6x    frame=17232 fps= 86 q=-0.0 size=N/A time=00:11:58.71 bitrate=N/A speed= 3.6x    frame=17278 fps= 86 q=-0.0 size=N/A time=00:12:00.63 bitrate=N/A speed= 3.6x    frame=17322 fps= 86 q=-0.0 size=N/A time=00:12:02.47 bitrate=N/A speed= 3.6x    frame=17366 fps= 86 q=-0.0 size=N/A time=00:12:04.30 bitrate=N/A speed= 3.6x    frame=17410 fps= 86 q=-0.0 size=N/A time=00:12:06.14 bitrate=N/A speed= 3.6x    frame=17454 fps= 86 q=-0.0 size=N/A time=00:12:07.97 bitrate=N/A speed= 3.6x    frame=17501 fps= 86 q=-0.0 size=N/A time=00:12:09.93 bitrate=N/A speed= 3.6x    frame=17544 fps= 86 q=-0.0 size=N/A time=00:12:11.73 bitrate=N/A speed= 3.6x    frame=17586 fps= 86 q=-0.0 size=N/A time=00:12:13.48 bitrate=N/A speed= 3.6x    frame=17632 fps= 86 q=-0.0 size=N/A time=00:12:15.40 bitrate=N/A speed= 3.6x    frame=17677 fps= 86 q=-0.0 size=N/A time=00:12:17.27 bitrate=N/A speed= 3.6x    frame=17720 fps= 86 q=-0.0 size=N/A time=00:12:19.07 bitrate=N/A speed= 3.6x    frame=17768 fps= 86 q=-0.0 size=N/A time=00:12:21.07 bitrate=N/A speed= 3.6x    frame=17812 fps= 86 q=-0.0 size=N/A time=00:12:22.90 bitrate=N/A speed= 3.6x    frame=17853 fps= 86 q=-0.0 size=N/A time=00:12:24.61 bitrate=N/A speed= 3.6x    frame=17898 fps= 86 q=-0.0 size=N/A time=00:12:26.49 bitrate=N/A speed= 3.6x    frame=17942 fps= 86 q=-0.0 size=N/A time=00:12:28.33 bitrate=N/A speed= 3.6x    frame=17985 fps= 86 q=-0.0 size=N/A time=00:12:30.12 bitrate=N/A speed= 3.6x    frame=18030 fps= 86 q=-0.0 size=N/A time=00:12:32.00 bitrate=N/A speed= 3.6x    frame=18073 fps= 86 q=-0.0 size=N/A time=00:12:33.79 bitrate=N/A speed= 3.6x    frame=18116 fps= 86 q=-0.0 size=N/A time=00:12:35.58 bitrate=N/A speed= 3.6x    frame=18163 fps= 86 q=-0.0 size=N/A time=00:12:37.54 bitrate=N/A speed= 3.6x    frame=18206 fps= 86 q=-0.0 size=N/A time=00:12:39.34 bitrate=N/A speed= 3.6x    frame=18252 fps= 86 q=-0.0 size=N/A time=00:12:41.26 bitrate=N/A speed= 3.6x    frame=18296 fps= 86 q=-0.0 size=N/A time=00:12:43.09 bitrate=N/A speed= 3.6x    frame=18339 fps= 86 q=-0.0 size=N/A time=00:12:44.88 bitrate=N/A speed= 3.6x    frame=18382 fps= 86 q=-0.0 size=N/A time=00:12:46.68 bitrate=N/A speed= 3.6x    frame=18428 fps= 86 q=-0.0 size=N/A time=00:12:48.60 bitrate=N/A speed= 3.6x    frame=18470 fps= 86 q=-0.0 size=N/A time=00:12:50.35 bitrate=N/A speed= 3.6x    frame=18515 fps= 86 q=-0.0 size=N/A time=00:12:52.22 bitrate=N/A speed= 3.6x    frame=18561 fps= 86 q=-0.0 size=N/A time=00:12:54.14 bitrate=N/A speed= 3.6x    frame=18605 fps= 86 q=-0.0 size=N/A time=00:12:55.98 bitrate=N/A speed= 3.6x    frame=18649 fps= 86 q=-0.0 size=N/A time=00:12:57.81 bitrate=N/A speed= 3.6x    frame=18695 fps= 86 q=-0.0 size=N/A time=00:12:59.73 bitrate=N/A speed= 3.6x    frame=18737 fps= 86 q=-0.0 size=N/A time=00:13:01.48 bitrate=N/A speed= 3.6x    frame=18779 fps= 86 q=-0.0 size=N/A time=00:13:03.24 bitrate=N/A speed= 3.6x    frame=18824 fps= 86 q=-0.0 size=N/A time=00:13:05.11 bitrate=N/A speed= 3.6x    frame=18869 fps= 86 q=-0.0 size=N/A time=00:13:06.99 bitrate=N/A speed= 3.6x    frame=18914 fps= 86 q=-0.0 size=N/A time=00:13:08.87 bitrate=N/A speed= 3.6x    frame=18961 fps= 86 q=-0.0 size=N/A time=00:13:10.83 bitrate=N/A speed= 3.6x    frame=19005 fps= 86 q=-0.0 size=N/A time=00:13:12.66 bitrate=N/A speed= 3.6x    frame=19050 fps= 86 q=-0.0 size=N/A time=00:13:14.54 bitrate=N/A speed= 3.6x    frame=19092 fps= 86 q=-0.0 size=N/A time=00:13:16.29 bitrate=N/A speed= 3.6x    frame=19136 fps= 86 q=-0.0 size=N/A time=00:13:18.13 bitrate=N/A speed= 3.6x    frame=19182 fps= 86 q=-0.0 size=N/A time=00:13:20.04 bitrate=N/A speed= 3.6x    frame=19225 fps= 86 q=-0.0 size=N/A time=00:13:21.84 bitrate=N/A speed= 3.6x    frame=19269 fps= 86 q=-0.0 size=N/A time=00:13:23.67 bitrate=N/A speed= 3.6x    frame=19316 fps= 86 q=-0.0 size=N/A time=00:13:25.63 bitrate=N/A speed= 3.6x    frame=19360 fps= 86 q=-0.0 size=N/A time=00:13:27.47 bitrate=N/A speed= 3.6x    frame=19406 fps= 86 q=-0.0 size=N/A time=00:13:29.39 bitrate=N/A speed= 3.6x    frame=19450 fps= 86 q=-0.0 size=N/A time=00:13:31.22 bitrate=N/A speed= 3.6x    frame=19493 fps= 86 q=-0.0 size=N/A time=00:13:33.02 bitrate=N/A speed= 3.6x    frame=19539 fps= 86 q=-0.0 size=N/A time=00:13:34.93 bitrate=N/A speed= 3.6x    frame=19586 fps= 86 q=-0.0 size=N/A time=00:13:36.89 bitrate=N/A speed= 3.6x    frame=19630 fps= 86 q=-0.0 size=N/A time=00:13:38.73 bitrate=N/A speed= 3.6x    frame=19676 fps= 86 q=-0.0 size=N/A time=00:13:40.65 bitrate=N/A speed= 3.6x    frame=19719 fps= 86 q=-0.0 size=N/A time=00:13:42.44 bitrate=N/A speed= 3.6x    frame=19764 fps= 86 q=-0.0 size=N/A time=00:13:44.32 bitrate=N/A speed= 3.6x    frame=19810 fps= 86 q=-0.0 size=N/A time=00:13:46.24 bitrate=N/A speed= 3.6x    frame=19855 fps= 86 q=-0.0 size=N/A time=00:13:48.11 bitrate=N/A speed= 3.6x    frame=19899 fps= 86 q=-0.0 size=N/A time=00:13:49.95 bitrate=N/A speed= 3.6x    frame=19946 fps= 86 q=-0.0 size=N/A time=00:13:51.91 bitrate=N/A speed= 3.6x    frame=19990 fps= 86 q=-0.0 size=N/A time=00:13:53.74 bitrate=N/A speed= 3.6x    frame=20035 fps= 86 q=-0.0 size=N/A time=00:13:55.62 bitrate=N/A speed= 3.6x    frame=20078 fps= 86 q=-0.0 size=N/A time=00:13:57.41 bitrate=N/A speed= 3.6x    frame=20123 fps= 86 q=-0.0 size=N/A time=00:13:59.29 bitrate=N/A speed= 3.6x    frame=20168 fps= 86 q=-0.0 size=N/A time=00:14:01.17 bitrate=N/A speed= 3.6x    frame=20208 fps= 86 q=-0.0 size=N/A time=00:14:02.84 bitrate=N/A speed= 3.6x    frame=20252 fps= 86 q=-0.0 size=N/A time=00:14:04.67 bitrate=N/A speed= 3.6x    frame=20298 fps= 86 q=-0.0 size=N/A time=00:14:06.59 bitrate=N/A speed= 3.6x    frame=20340 fps= 86 q=-0.0 size=N/A time=00:14:08.34 bitrate=N/A speed= 3.6x    frame=20388 fps= 86 q=-0.0 size=N/A time=00:14:10.34 bitrate=N/A speed= 3.6x    frame=20432 fps= 86 q=-0.0 size=N/A time=00:14:12.18 bitrate=N/A speed= 3.6x    frame=20476 fps= 86 q=-0.0 size=N/A time=00:14:14.01 bitrate=N/A speed= 3.6x    frame=20520 fps= 86 q=-0.0 size=N/A time=00:14:15.85 bitrate=N/A speed= 3.6x    frame=20564 fps= 86 q=-0.0 size=N/A time=00:14:17.69 bitrate=N/A speed= 3.6x    frame=20610 fps= 86 q=-0.0 size=N/A time=00:14:19.60 bitrate=N/A speed= 3.6x    frame=20653 fps= 86 q=-0.0 size=N/A time=00:14:21.40 bitrate=N/A speed= 3.6x    frame=20694 fps= 86 q=-0.0 size=N/A time=00:14:23.11 bitrate=N/A speed= 3.6x    frame=20738 fps= 86 q=-0.0 size=N/A time=00:14:24.94 bitrate=N/A speed= 3.6x    frame=20783 fps= 86 q=-0.0 size=N/A time=00:14:26.82 bitrate=N/A speed= 3.6x    frame=20828 fps= 86 q=-0.0 size=N/A time=00:14:28.70 bitrate=N/A speed= 3.6x    frame=20873 fps= 86 q=-0.0 size=N/A time=00:14:30.57 bitrate=N/A speed= 3.6x    frame=20916 fps= 86 q=-0.0 size=N/A time=00:14:32.37 bitrate=N/A speed= 3.6x    frame=20961 fps= 86 q=-0.0 size=N/A time=00:14:34.24 bitrate=N/A speed= 3.6x    frame=21004 fps= 86 q=-0.0 size=N/A time=00:14:36.04 bitrate=N/A speed= 3.6x    frame=21047 fps= 86 q=-0.0 size=N/A time=00:14:37.83 bitrate=N/A speed= 3.6x    frame=21095 fps= 86 q=-0.0 size=N/A time=00:14:39.83 bitrate=N/A speed= 3.6x    frame=21139 fps= 86 q=-0.0 size=N/A time=00:14:41.67 bitrate=N/A speed= 3.6x    frame=21182 fps= 86 q=-0.0 size=N/A time=00:14:43.46 bitrate=N/A speed= 3.6x    frame=21227 fps= 86 q=-0.0 size=N/A time=00:14:45.34 bitrate=N/A speed= 3.6x    frame=21271 fps= 86 q=-0.0 size=N/A time=00:14:47.17 bitrate=N/A speed= 3.6x    frame=21315 fps= 86 q=-0.0 size=N/A time=00:14:49.01 bitrate=N/A speed= 3.6x    frame=21358 fps= 86 q=-0.0 size=N/A time=00:14:50.80 bitrate=N/A speed= 3.6x    frame=21401 fps= 86 q=-0.0 size=N/A time=00:14:52.60 bitrate=N/A speed= 3.6x    frame=21445 fps= 86 q=-0.0 size=N/A time=00:14:54.43 bitrate=N/A speed= 3.6x    frame=21488 fps= 86 q=-0.0 size=N/A time=00:14:56.22 bitrate=N/A speed= 3.6x    frame=21532 fps= 86 q=-0.0 size=N/A time=00:14:58.06 bitrate=N/A speed= 3.6x    frame=21574 fps= 86 q=-0.0 size=N/A time=00:14:59.81 bitrate=N/A speed= 3.6x    frame=21620 fps= 86 q=-0.0 size=N/A time=00:15:01.73 bitrate=N/A speed= 3.6x    frame=21663 fps= 86 q=-0.0 size=N/A time=00:15:03.52 bitrate=N/A speed= 3.6x    frame=21708 fps= 86 q=-0.0 size=N/A time=00:15:05.40 bitrate=N/A speed= 3.6x    frame=21752 fps= 86 q=-0.0 size=N/A time=00:15:07.23 bitrate=N/A speed= 3.6x    frame=21798 fps= 86 q=-0.0 size=N/A time=00:15:09.15 bitrate=N/A speed= 3.6x    frame=21843 fps= 86 q=-0.0 size=N/A time=00:15:11.03 bitrate=N/A speed= 3.6x    frame=21888 fps= 86 q=-0.0 size=N/A time=00:15:12.91 bitrate=N/A speed= 3.6x    frame=21932 fps= 86 q=-0.0 size=N/A time=00:15:14.74 bitrate=N/A speed= 3.6x    frame=21978 fps= 86 q=-0.0 size=N/A time=00:15:16.66 bitrate=N/A speed= 3.6x    frame=22023 fps= 86 q=-0.0 size=N/A time=00:15:18.54 bitrate=N/A speed= 3.6x    frame=22070 fps= 86 q=-0.0 size=N/A time=00:15:20.50 bitrate=N/A speed= 3.6x    frame=22114 fps= 86 q=-0.0 size=N/A time=00:15:22.33 bitrate=N/A speed= 3.6x    frame=22157 fps= 86 q=-0.0 size=N/A time=00:15:24.13 bitrate=N/A speed= 3.6x    frame=22202 fps= 86 q=-0.0 size=N/A time=00:15:26.00 bitrate=N/A speed= 3.6x    frame=22246 fps= 86 q=-0.0 size=N/A time=00:15:27.84 bitrate=N/A speed= 3.6x    frame=22289 fps= 86 q=-0.0 size=N/A time=00:15:29.63 bitrate=N/A speed= 3.6x    frame=22336 fps= 86 q=-0.0 size=N/A time=00:15:31.59 bitrate=N/A speed= 3.6x    frame=22381 fps= 86 q=-0.0 size=N/A time=00:15:33.47 bitrate=N/A speed= 3.6x    frame=22428 fps= 86 q=-0.0 size=N/A time=00:15:35.43 bitrate=N/A speed= 3.6x    frame=22473 fps= 86 q=-0.0 size=N/A time=00:15:37.31 bitrate=N/A speed= 3.6x    frame=22516 fps= 86 q=-0.0 size=N/A time=00:15:39.10 bitrate=N/A speed= 3.6x    frame=22560 fps= 86 q=-0.0 size=N/A time=00:15:40.94 bitrate=N/A speed= 3.6x    frame=22605 fps= 86 q=-0.0 size=N/A time=00:15:42.81 bitrate=N/A speed= 3.6x    frame=22650 fps= 86 q=-0.0 size=N/A time=00:15:44.69 bitrate=N/A speed= 3.6x    frame=22693 fps= 86 q=-0.0 size=N/A time=00:15:46.48 bitrate=N/A speed= 3.6x    frame=22737 fps= 86 q=-0.0 size=N/A time=00:15:48.32 bitrate=N/A speed= 3.6x    frame=22784 fps= 86 q=-0.0 size=N/A time=00:15:50.28 bitrate=N/A speed= 3.6x    frame=22828 fps= 86 q=-0.0 size=N/A time=00:15:52.11 bitrate=N/A speed= 3.6x    frame=22873 fps= 86 q=-0.0 size=N/A time=00:15:53.99 bitrate=N/A speed= 3.6x    frame=22919 fps= 86 q=-0.0 size=N/A time=00:15:55.91 bitrate=N/A speed= 3.6x    frame=22964 fps= 86 q=-0.0 size=N/A time=00:15:57.79 bitrate=N/A speed= 3.6x    frame=23008 fps= 86 q=-0.0 size=N/A time=00:15:59.62 bitrate=N/A speed= 3.6x    frame=23052 fps= 86 q=-0.0 size=N/A time=00:16:01.46 bitrate=N/A speed= 3.6x    frame=23098 fps= 86 q=-0.0 size=N/A time=00:16:03.37 bitrate=N/A speed= 3.6x    frame=23142 fps= 86 q=-0.0 size=N/A time=00:16:05.21 bitrate=N/A speed= 3.6x    frame=23187 fps= 86 q=-0.0 size=N/A time=00:16:07.09 bitrate=N/A speed= 3.6x    frame=23230 fps= 86 q=-0.0 size=N/A time=00:16:08.88 bitrate=N/A speed= 3.6x    frame=23276 fps= 86 q=-0.0 size=N/A time=00:16:10.80 bitrate=N/A speed= 3.6x    frame=23320 fps= 86 q=-0.0 size=N/A time=00:16:12.63 bitrate=N/A speed= 3.6x    frame=23366 fps= 86 q=-0.0 size=N/A time=00:16:14.55 bitrate=N/A speed= 3.6x    frame=23411 fps= 86 q=-0.0 size=N/A time=00:16:16.43 bitrate=N/A speed= 3.6x    frame=23456 fps= 86 q=-0.0 size=N/A time=00:16:18.31 bitrate=N/A speed= 3.6x    frame=23497 fps= 86 q=-0.0 size=N/A time=00:16:20.02 bitrate=N/A speed= 3.6x    frame=23543 fps= 86 q=-0.0 size=N/A time=00:16:21.93 bitrate=N/A speed= 3.6x    frame=23586 fps= 86 q=-0.0 size=N/A time=00:16:23.73 bitrate=N/A speed= 3.6x    frame=23630 fps= 86 q=-0.0 size=N/A time=00:16:25.56 bitrate=N/A speed= 3.6x    frame=23677 fps= 86 q=-0.0 size=N/A time=00:16:27.52 bitrate=N/A speed= 3.6x    frame=23721 fps= 86 q=-0.0 size=N/A time=00:16:29.36 bitrate=N/A speed= 3.6x    frame=23766 fps= 86 q=-0.0 size=N/A time=00:16:31.24 bitrate=N/A speed= 3.6x    frame=23807 fps= 86 q=-0.0 size=N/A time=00:16:32.95 bitrate=N/A speed= 3.6x    frame=23853 fps= 86 q=-0.0 size=N/A time=00:16:34.86 bitrate=N/A speed= 3.6x    frame=23897 fps= 86 q=-0.0 size=N/A time=00:16:36.70 bitrate=N/A speed= 3.6x    frame=23943 fps= 86 q=-0.0 size=N/A time=00:16:38.62 bitrate=N/A speed= 3.6x    frame=23988 fps= 86 q=-0.0 size=N/A time=00:16:40.49 bitrate=N/A speed= 3.6x    frame=24032 fps= 86 q=-0.0 size=N/A time=00:16:42.33 bitrate=N/A speed= 3.6x    frame=24078 fps= 86 q=-0.0 size=N/A time=00:16:44.25 bitrate=N/A speed= 3.6x    frame=24124 fps= 86 q=-0.0 size=N/A time=00:16:46.17 bitrate=N/A speed= 3.6x    frame=24168 fps= 86 q=-0.0 size=N/A time=00:16:48.00 bitrate=N/A speed= 3.6x    frame=24210 fps= 86 q=-0.0 size=N/A time=00:16:49.75 bitrate=N/A speed= 3.6x    frame=24253 fps= 86 q=-0.0 size=N/A time=00:16:51.55 bitrate=N/A speed= 3.6x    frame=24295 fps= 86 q=-0.0 size=N/A time=00:16:53.30 bitrate=N/A speed= 3.6x    frame=24337 fps= 86 q=-0.0 size=N/A time=00:16:55.05 bitrate=N/A speed= 3.6x    frame=24383 fps= 86 q=-0.0 size=N/A time=00:16:56.97 bitrate=N/A speed= 3.6x    frame=24426 fps= 86 q=-0.0 size=N/A time=00:16:58.76 bitrate=N/A speed= 3.6x    frame=24473 fps= 86 q=-0.0 size=N/A time=00:17:00.72 bitrate=N/A speed= 3.6x    frame=24516 fps= 86 q=-0.0 size=N/A time=00:17:02.52 bitrate=N/A speed= 3.6x    frame=24565 fps= 86 q=-0.0 size=N/A time=00:17:04.56 bitrate=N/A speed= 3.6x    frame=24608 fps= 86 q=-0.0 size=N/A time=00:17:06.35 bitrate=N/A speed= 3.6x    frame=24653 fps= 86 q=-0.0 size=N/A time=00:17:08.23 bitrate=N/A speed= 3.6x    frame=24697 fps= 86 q=-0.0 size=N/A time=00:17:10.07 bitrate=N/A speed= 3.6x    frame=24743 fps= 86 q=-0.0 size=N/A time=00:17:11.98 bitrate=N/A speed= 3.6x    frame=24786 fps= 86 q=-0.0 size=N/A time=00:17:13.78 bitrate=N/A speed= 3.6x    frame=24832 fps= 86 q=-0.0 size=N/A time=00:17:15.70 bitrate=N/A speed= 3.6x    frame=24878 fps= 86 q=-0.0 size=N/A time=00:17:17.61 bitrate=N/A speed= 3.6x    frame=24922 fps= 86 q=-0.0 size=N/A time=00:17:19.45 bitrate=N/A speed= 3.6x    frame=24967 fps= 86 q=-0.0 size=N/A time=00:17:21.33 bitrate=N/A speed= 3.6x    frame=25014 fps= 86 q=-0.0 size=N/A time=00:17:23.29 bitrate=N/A speed= 3.6x    frame=25059 fps= 86 q=-0.0 size=N/A time=00:17:25.16 bitrate=N/A speed= 3.6x    frame=25101 fps= 86 q=-0.0 size=N/A time=00:17:26.92 bitrate=N/A speed= 3.6x    frame=25149 fps= 86 q=-0.0 size=N/A time=00:17:28.92 bitrate=N/A speed= 3.6x    frame=25193 fps= 86 q=-0.0 size=N/A time=00:17:30.75 bitrate=N/A speed= 3.6x    frame=25238 fps= 86 q=-0.0 size=N/A time=00:17:32.63 bitrate=N/A speed= 3.6x    frame=25284 fps= 86 q=-0.0 size=N/A time=00:17:34.55 bitrate=N/A speed= 3.6x    frame=25330 fps= 86 q=-0.0 size=N/A time=00:17:36.47 bitrate=N/A speed= 3.6x    frame=25374 fps= 86 q=-0.0 size=N/A time=00:17:38.30 bitrate=N/A speed= 3.6x    frame=25417 fps= 86 q=-0.0 size=N/A time=00:17:40.10 bitrate=N/A speed= 3.6x    frame=25461 fps= 86 q=-0.0 size=N/A time=00:17:41.93 bitrate=N/A speed= 3.6x    frame=25504 fps= 86 q=-0.0 size=N/A time=00:17:43.72 bitrate=N/A speed= 3.6x    frame=25550 fps= 86 q=-0.0 size=N/A time=00:17:45.64 bitrate=N/A speed= 3.6x    frame=25594 fps= 86 q=-0.0 size=N/A time=00:17:47.48 bitrate=N/A speed= 3.6x    frame=25638 fps= 86 q=-0.0 size=N/A time=00:17:49.31 bitrate=N/A speed= 3.6x    frame=25683 fps= 86 q=-0.0 size=N/A time=00:17:51.19 bitrate=N/A speed= 3.6x    frame=25728 fps= 86 q=-0.0 size=N/A time=00:17:53.07 bitrate=N/A speed= 3.6x    frame=25773 fps= 86 q=-0.0 size=N/A time=00:17:54.94 bitrate=N/A speed= 3.6x    frame=25819 fps= 86 q=-0.0 size=N/A time=00:17:56.86 bitrate=N/A speed= 3.6x    frame=25863 fps= 86 q=-0.0 size=N/A time=00:17:58.70 bitrate=N/A speed= 3.6x    frame=25909 fps= 86 q=-0.0 size=N/A time=00:18:00.62 bitrate=N/A speed= 3.6x    frame=25953 fps= 86 q=-0.0 size=N/A time=00:18:02.45 bitrate=N/A speed= 3.6x    frame=25997 fps= 86 q=-0.0 size=N/A time=00:18:04.29 bitrate=N/A speed= 3.6x    frame=26043 fps= 86 q=-0.0 size=N/A time=00:18:06.21 bitrate=N/A speed= 3.6x    frame=26089 fps= 86 q=-0.0 size=N/A time=00:18:08.12 bitrate=N/A speed= 3.6x    frame=26133 fps= 86 q=-0.0 size=N/A time=00:18:09.96 bitrate=N/A speed= 3.6x    frame=26177 fps= 86 q=-0.0 size=N/A time=00:18:11.79 bitrate=N/A speed= 3.6x    frame=26223 fps= 86 q=-0.0 size=N/A time=00:18:13.71 bitrate=N/A speed= 3.6x    frame=26267 fps= 86 q=-0.0 size=N/A time=00:18:15.55 bitrate=N/A speed= 3.6x    frame=26314 fps= 86 q=-0.0 size=N/A time=00:18:17.51 bitrate=N/A speed= 3.6x    frame=26358 fps= 86 q=-0.0 size=N/A time=00:18:19.34 bitrate=N/A speed= 3.6x    frame=26401 fps= 86 q=-0.0 size=N/A time=00:18:21.14 bitrate=N/A speed= 3.6x    frame=26447 fps= 86 q=-0.0 size=N/A time=00:18:23.06 bitrate=N/A speed= 3.6x    frame=26491 fps= 86 q=-0.0 size=N/A time=00:18:24.89 bitrate=N/A speed= 3.6x    frame=26537 fps= 86 q=-0.0 size=N/A time=00:18:26.81 bitrate=N/A speed= 3.6x    frame=26582 fps= 86 q=-0.0 size=N/A time=00:18:28.69 bitrate=N/A speed= 3.6x    frame=26625 fps= 86 q=-0.0 size=N/A time=00:18:30.48 bitrate=N/A speed= 3.6x    frame=26670 fps= 86 q=-0.0 size=N/A time=00:18:32.36 bitrate=N/A speed= 3.6x    frame=26715 fps= 86 q=-0.0 size=N/A time=00:18:34.23 bitrate=N/A speed= 3.6x    frame=26759 fps= 86 q=-0.0 size=N/A time=00:18:36.07 bitrate=N/A speed= 3.6x    frame=26801 fps= 86 q=-0.0 size=N/A time=00:18:37.82 bitrate=N/A speed= 3.6x    frame=26846 fps= 86 q=-0.0 size=N/A time=00:18:39.70 bitrate=N/A speed= 3.6x    frame=26891 fps= 86 q=-0.0 size=N/A time=00:18:41.57 bitrate=N/A speed= 3.6x    frame=26935 fps= 86 q=-0.0 size=N/A time=00:18:43.41 bitrate=N/A speed= 3.6x    frame=26980 fps= 86 q=-0.0 size=N/A time=00:18:45.29 bitrate=N/A speed= 3.6x    frame=27026 fps= 86 q=-0.0 size=N/A time=00:18:47.20 bitrate=N/A speed= 3.6x    frame=27071 fps= 86 q=-0.0 size=N/A time=00:18:49.08 bitrate=N/A speed= 3.6x    frame=27117 fps= 86 q=-0.0 size=N/A time=00:18:51.00 bitrate=N/A speed= 3.6x    frame=27163 fps= 86 q=-0.0 size=N/A time=00:18:52.92 bitrate=N/A speed= 3.6x    frame=27207 fps= 86 q=-0.0 size=N/A time=00:18:54.75 bitrate=N/A speed= 3.6x    frame=27250 fps= 86 q=-0.0 size=N/A time=00:18:56.55 bitrate=N/A speed= 3.6x    frame=27298 fps= 86 q=-0.0 size=N/A time=00:18:58.55 bitrate=N/A speed= 3.6x    frame=27340 fps= 86 q=-0.0 size=N/A time=00:19:00.30 bitrate=N/A speed= 3.6x    frame=27386 fps= 86 q=-0.0 size=N/A time=00:19:02.22 bitrate=N/A speed= 3.6x    frame=27431 fps= 86 q=-0.0 size=N/A time=00:19:04.10 bitrate=N/A speed= 3.6x    frame=27475 fps= 86 q=-0.0 size=N/A time=00:19:05.93 bitrate=N/A speed= 3.6x    frame=27519 fps= 86 q=-0.0 size=N/A time=00:19:07.77 bitrate=N/A speed= 3.6x    frame=27564 fps= 86 q=-0.0 size=N/A time=00:19:09.64 bitrate=N/A speed= 3.6x    frame=27608 fps= 86 q=-0.0 size=N/A time=00:19:11.48 bitrate=N/A speed= 3.6x    frame=27655 fps= 86 q=-0.0 size=N/A time=00:19:13.44 bitrate=N/A speed= 3.6x    frame=27696 fps= 86 q=-0.0 size=N/A time=00:19:15.15 bitrate=N/A speed= 3.6x    frame=27740 fps= 86 q=-0.0 size=N/A time=00:19:16.98 bitrate=N/A speed= 3.6x    frame=27787 fps= 86 q=-0.0 size=N/A time=00:19:18.94 bitrate=N/A speed= 3.6x    frame=27833 fps= 86 q=-0.0 size=N/A time=00:19:20.86 bitrate=N/A speed= 3.6x    frame=27878 fps= 86 q=-0.0 size=N/A time=00:19:22.74 bitrate=N/A speed= 3.6x    frame=27924 fps= 86 q=-0.0 size=N/A time=00:19:24.66 bitrate=N/A speed= 3.6x    frame=27967 fps= 86 q=-0.0 size=N/A time=00:19:26.45 bitrate=N/A speed= 3.6x    frame=28013 fps= 86 q=-0.0 size=N/A time=00:19:28.37 bitrate=N/A speed= 3.6x    frame=28055 fps= 86 q=-0.0 size=N/A time=00:19:30.12 bitrate=N/A speed= 3.6x    frame=28098 fps= 86 q=-0.0 size=N/A time=00:19:31.92 bitrate=N/A speed= 3.6x    frame=28142 fps= 86 q=-0.0 size=N/A time=00:19:33.75 bitrate=N/A speed= 3.6x    frame=28186 fps= 86 q=-0.0 size=N/A time=00:19:35.59 bitrate=N/A speed= 3.6x    frame=28232 fps= 86 q=-0.0 size=N/A time=00:19:37.50 bitrate=N/A speed= 3.6x    frame=28276 fps= 86 q=-0.0 size=N/A time=00:19:39.34 bitrate=N/A speed= 3.6x    frame=28325 fps= 86 q=-0.0 size=N/A time=00:19:41.38 bitrate=N/A speed= 3.6x    frame=28368 fps= 86 q=-0.0 size=N/A time=00:19:43.18 bitrate=N/A speed= 3.6x    frame=28411 fps= 86 q=-0.0 size=N/A time=00:19:44.97 bitrate=N/A speed= 3.6x    frame=28454 fps= 86 q=-0.0 size=N/A time=00:19:46.76 bitrate=N/A speed= 3.6x    frame=28500 fps= 86 q=-0.0 size=N/A time=00:19:48.68 bitrate=N/A speed= 3.6x    frame=28545 fps= 86 q=-0.0 size=N/A time=00:19:50.56 bitrate=N/A speed= 3.6x    frame=28590 fps= 86 q=-0.0 size=N/A time=00:19:52.44 bitrate=N/A speed= 3.6x    frame=28636 fps= 86 q=-0.0 size=N/A time=00:19:54.35 bitrate=N/A speed= 3.6x    frame=28681 fps= 86 q=-0.0 size=N/A time=00:19:56.23 bitrate=N/A speed= 3.6x    frame=28726 fps= 86 q=-0.0 size=N/A time=00:19:58.11 bitrate=N/A speed= 3.6x    frame=28772 fps= 86 q=-0.0 size=N/A time=00:20:00.03 bitrate=N/A speed= 3.6x    frame=28815 fps= 86 q=-0.0 size=N/A time=00:20:01.82 bitrate=N/A speed= 3.6x    frame=28860 fps= 86 q=-0.0 size=N/A time=00:20:03.70 bitrate=N/A speed= 3.6x    frame=28903 fps= 86 q=-0.0 size=N/A time=00:20:05.49 bitrate=N/A speed= 3.6x    frame=28948 fps= 86 q=-0.0 size=N/A time=00:20:07.37 bitrate=N/A speed= 3.6x    frame=28993 fps= 86 q=-0.0 size=N/A time=00:20:09.24 bitrate=N/A speed= 3.6x    frame=29037 fps= 86 q=-0.0 size=N/A time=00:20:11.08 bitrate=N/A speed= 3.6x    frame=29084 fps= 86 q=-0.0 size=N/A time=00:20:13.04 bitrate=N/A speed= 3.6x    frame=29130 fps= 86 q=-0.0 size=N/A time=00:20:14.96 bitrate=N/A speed= 3.6x    frame=29173 fps= 86 q=-0.0 size=N/A time=00:20:16.75 bitrate=N/A speed= 3.6x    frame=29220 fps= 86 q=-0.0 size=N/A time=00:20:18.71 bitrate=N/A speed= 3.6x    frame=29266 fps= 86 q=-0.0 size=N/A time=00:20:20.63 bitrate=N/A speed= 3.6x    frame=29309 fps= 86 q=-0.0 size=N/A time=00:20:22.42 bitrate=N/A speed= 3.6x    frame=29352 fps= 86 q=-0.0 size=N/A time=00:20:24.22 bitrate=N/A speed= 3.6x    frame=29397 fps= 86 q=-0.0 size=N/A time=00:20:26.09 bitrate=N/A speed= 3.6x    frame=29443 fps= 86 q=-0.0 size=N/A time=00:20:28.01 bitrate=N/A speed= 3.6x    frame=29489 fps= 86 q=-0.0 size=N/A time=00:20:29.93 bitrate=N/A speed= 3.6x    frame=29534 fps= 86 q=-0.0 size=N/A time=00:20:31.81 bitrate=N/A speed= 3.6x    frame=29579 fps= 86 q=-0.0 size=N/A time=00:20:33.69 bitrate=N/A speed= 3.6x    frame=29623 fps= 86 q=-0.0 size=N/A time=00:20:35.52 bitrate=N/A speed= 3.6x    frame=29667 fps= 86 q=-0.0 size=N/A time=00:20:37.36 bitrate=N/A speed= 3.6x    frame=29712 fps= 86 q=-0.0 size=N/A time=00:20:39.23 bitrate=N/A speed= 3.6x    frame=29755 fps= 86 q=-0.0 size=N/A time=00:20:41.03 bitrate=N/A speed= 3.6x    frame=29800 fps= 86 q=-0.0 size=N/A time=00:20:42.90 bitrate=N/A speed= 3.6x    frame=29842 fps= 86 q=-0.0 size=N/A time=00:20:44.66 bitrate=N/A speed= 3.6x    frame=29888 fps= 86 q=-0.0 size=N/A time=00:20:46.57 bitrate=N/A speed= 3.6x    frame=29932 fps= 86 q=-0.0 size=N/A time=00:20:48.41 bitrate=N/A speed= 3.6x    frame=29978 fps= 86 q=-0.0 size=N/A time=00:20:50.33 bitrate=N/A speed= 3.6x    frame=30022 fps= 86 q=-0.0 size=N/A time=00:20:52.16 bitrate=N/A speed= 3.6x    frame=30067 fps= 86 q=-0.0 size=N/A time=00:20:54.04 bitrate=N/A speed= 3.6x    frame=30113 fps= 86 q=-0.0 size=N/A time=00:20:55.96 bitrate=N/A speed= 3.6x    frame=30159 fps= 86 q=-0.0 size=N/A time=00:20:57.88 bitrate=N/A speed= 3.6x    frame=30205 fps= 86 q=-0.0 size=N/A time=00:20:59.80 bitrate=N/A speed= 3.6x    frame=30251 fps= 86 q=-0.0 size=N/A time=00:21:01.71 bitrate=N/A speed= 3.6x    frame=30295 fps= 86 q=-0.0 size=N/A time=00:21:03.55 bitrate=N/A speed= 3.6x    frame=30338 fps= 86 q=-0.0 size=N/A time=00:21:05.34 bitrate=N/A speed= 3.6x    frame=30383 fps= 86 q=-0.0 size=N/A time=00:21:07.22 bitrate=N/A speed= 3.6x    frame=30429 fps= 86 q=-0.0 size=N/A time=00:21:09.14 bitrate=N/A speed= 3.6x    frame=30472 fps= 86 q=-0.0 size=N/A time=00:21:10.93 bitrate=N/A speed= 3.6x    frame=30516 fps= 86 q=-0.0 size=N/A time=00:21:12.77 bitrate=N/A speed= 3.6x    frame=30563 fps= 86 q=-0.0 size=N/A time=00:21:14.73 bitrate=N/A speed= 3.6x    frame=30606 fps= 86 q=-0.0 size=N/A time=00:21:16.52 bitrate=N/A speed= 3.6x    frame=30654 fps= 86 q=-0.0 size=N/A time=00:21:18.52 bitrate=N/A speed= 3.6x    frame=30697 fps= 86 q=-0.0 size=N/A time=00:21:20.32 bitrate=N/A speed= 3.6x    frame=30743 fps= 86 q=-0.0 size=N/A time=00:21:22.23 bitrate=N/A speed= 3.6x    frame=30790 fps= 86 q=-0.0 size=N/A time=00:21:24.19 bitrate=N/A speed= 3.6x    frame=30835 fps= 86 q=-0.0 size=N/A time=00:21:26.07 bitrate=N/A speed= 3.6x    frame=30878 fps= 86 q=-0.0 size=N/A time=00:21:27.86 bitrate=N/A speed= 3.6x    frame=30921 fps= 86 q=-0.0 size=N/A time=00:21:29.66 bitrate=N/A speed= 3.6x    frame=30965 fps= 86 q=-0.0 size=N/A time=00:21:31.49 bitrate=N/A speed= 3.6x    frame=31011 fps= 86 q=-0.0 size=N/A time=00:21:33.41 bitrate=N/A speed= 3.6x    frame=31056 fps= 86 q=-0.0 size=N/A time=00:21:35.29 bitrate=N/A speed= 3.6x    frame=31097 fps= 86 q=-0.0 size=N/A time=00:21:37.00 bitrate=N/A speed= 3.6x    frame=31141 fps= 86 q=-0.0 size=N/A time=00:21:38.83 bitrate=N/A speed= 3.6x    frame=31185 fps= 86 q=-0.0 size=N/A time=00:21:40.67 bitrate=N/A speed= 3.6x    frame=31228 fps= 86 q=-0.0 size=N/A time=00:21:42.46 bitrate=N/A speed= 3.6x    frame=31272 fps= 86 q=-0.0 size=N/A time=00:21:44.30 bitrate=N/A speed= 3.6x    frame=31319 fps= 86 q=-0.0 size=N/A time=00:21:46.26 bitrate=N/A speed= 3.6x    frame=31363 fps= 86 q=-0.0 size=N/A time=00:21:48.09 bitrate=N/A speed= 3.6x    frame=31405 fps= 86 q=-0.0 size=N/A time=00:21:49.85 bitrate=N/A speed= 3.6x    frame=31452 fps= 86 q=-0.0 size=N/A time=00:21:51.81 bitrate=N/A speed= 3.6x    frame=31495 fps= 86 q=-0.0 size=N/A time=00:21:53.60 bitrate=N/A speed= 3.6x    frame=31538 fps= 86 q=-0.0 size=N/A time=00:21:55.39 bitrate=N/A speed= 3.6x    frame=31583 fps= 86 q=-0.0 size=N/A time=00:21:57.27 bitrate=N/A speed= 3.6x    frame=31625 fps= 86 q=-0.0 size=N/A time=00:21:59.02 bitrate=N/A speed= 3.6x    frame=31671 fps= 86 q=-0.0 size=N/A time=00:22:00.94 bitrate=N/A speed= 3.6x    frame=31715 fps= 86 q=-0.0 size=N/A time=00:22:02.77 bitrate=N/A speed= 3.6x    frame=31760 fps= 86 q=-0.0 size=N/A time=00:22:04.65 bitrate=N/A speed= 3.6x    frame=31805 fps= 86 q=-0.0 size=N/A time=00:22:06.53 bitrate=N/A speed= 3.6x    frame=31848 fps= 86 q=-0.0 size=N/A time=00:22:08.32 bitrate=N/A speed= 3.6x    frame=31893 fps= 86 q=-0.0 size=N/A time=00:22:10.20 bitrate=N/A speed= 3.6x    frame=31939 fps= 86 q=-0.0 size=N/A time=00:22:12.12 bitrate=N/A speed= 3.6x    frame=31984 fps= 86 q=-0.0 size=N/A time=00:22:13.99 bitrate=N/A speed= 3.6x    frame=32027 fps= 86 q=-0.0 size=N/A time=00:22:15.79 bitrate=N/A speed= 3.6x    frame=32072 fps= 86 q=-0.0 size=N/A time=00:22:17.66 bitrate=N/A speed= 3.6x    frame=32115 fps= 86 q=-0.0 size=N/A time=00:22:19.46 bitrate=N/A speed= 3.6x    frame=32161 fps= 86 q=-0.0 size=N/A time=00:22:21.38 bitrate=N/A speed= 3.6x    frame=32207 fps= 86 q=-0.0 size=N/A time=00:22:23.30 bitrate=N/A speed= 3.6x    frame=32249 fps= 86 q=-0.0 size=N/A time=00:22:25.05 bitrate=N/A speed= 3.6x    frame=32292 fps= 86 q=-0.0 size=N/A time=00:22:26.84 bitrate=N/A speed= 3.6x    frame=32335 fps= 86 q=-0.0 size=N/A time=00:22:28.63 bitrate=N/A speed= 3.6x    frame=32378 fps= 86 q=-0.0 size=N/A time=00:22:30.43 bitrate=N/A speed= 3.6x    frame=32422 fps= 86 q=-0.0 size=N/A time=00:22:32.26 bitrate=N/A speed= 3.6x    frame=32467 fps= 86 q=-0.0 size=N/A time=00:22:34.14 bitrate=N/A speed= 3.6x    frame=32511 fps= 86 q=-0.0 size=N/A time=00:22:35.97 bitrate=N/A speed= 3.6x    frame=32556 fps= 86 q=-0.0 size=N/A time=00:22:37.85 bitrate=N/A speed= 3.6x    frame=32602 fps= 86 q=-0.0 size=N/A time=00:22:39.77 bitrate=N/A speed= 3.6x    frame=32647 fps= 86 q=-0.0 size=N/A time=00:22:41.65 bitrate=N/A speed= 3.6x    frame=32693 fps= 86 q=-0.0 size=N/A time=00:22:43.57 bitrate=N/A speed= 3.6x    frame=32735 fps= 86 q=-0.0 size=N/A time=00:22:45.32 bitrate=N/A speed= 3.6x    frame=32781 fps= 86 q=-0.0 size=N/A time=00:22:47.24 bitrate=N/A speed= 3.6x    frame=32826 fps= 86 q=-0.0 size=N/A time=00:22:49.11 bitrate=N/A speed= 3.6x    frame=32871 fps= 86 q=-0.0 size=N/A time=00:22:50.99 bitrate=N/A speed= 3.6x    frame=32913 fps= 86 q=-0.0 size=N/A time=00:22:52.74 bitrate=N/A speed= 3.6x    frame=32958 fps= 86 q=-0.0 size=N/A time=00:22:54.62 bitrate=N/A speed= 3.6x    frame=33001 fps= 86 q=-0.0 size=N/A time=00:22:56.41 bitrate=N/A speed= 3.6x    frame=33045 fps= 86 q=-0.0 size=N/A time=00:22:58.25 bitrate=N/A speed= 3.6x    frame=33090 fps= 86 q=-0.0 size=N/A time=00:23:00.12 bitrate=N/A speed= 3.6x    frame=33133 fps= 86 q=-0.0 size=N/A time=00:23:01.92 bitrate=N/A speed= 3.6x    frame=33178 fps= 86 q=-0.0 size=N/A time=00:23:03.79 bitrate=N/A speed= 3.6x    frame=33223 fps= 86 q=-0.0 size=N/A time=00:23:05.67 bitrate=N/A speed= 3.6x    frame=33266 fps= 86 q=-0.0 size=N/A time=00:23:07.46 bitrate=N/A speed= 3.6x    frame=33310 fps= 86 q=-0.0 size=N/A time=00:23:09.30 bitrate=N/A speed= 3.6x    frame=33354 fps= 86 q=-0.0 size=N/A time=00:23:11.13 bitrate=N/A speed= 3.6x    frame=33400 fps= 86 q=-0.0 size=N/A time=00:23:13.05 bitrate=N/A speed= 3.6x    frame=33445 fps= 86 q=-0.0 size=N/A time=00:23:14.93 bitrate=N/A speed= 3.6x    frame=33487 fps= 86 q=-0.0 size=N/A time=00:23:16.68 bitrate=N/A speed= 3.6x    frame=33532 fps= 86 q=-0.0 size=N/A time=00:23:18.56 bitrate=N/A speed= 3.6x    frame=33578 fps= 86 q=-0.0 size=N/A time=00:23:20.48 bitrate=N/A speed= 3.6x    frame=33623 fps= 86 q=-0.0 size=N/A time=00:23:22.35 bitrate=N/A speed= 3.6x    frame=33666 fps= 86 q=-0.0 size=N/A time=00:23:24.15 bitrate=N/A speed= 3.6x    frame=33708 fps= 86 q=-0.0 size=N/A time=00:23:25.90 bitrate=N/A speed= 3.6x    frame=33752 fps= 86 q=-0.0 size=N/A time=00:23:27.73 bitrate=N/A speed= 3.6x    frame=33795 fps= 86 q=-0.0 size=N/A time=00:23:29.53 bitrate=N/A speed= 3.6x    frame=33836 fps= 86 q=-0.0 size=N/A time=00:23:31.24 bitrate=N/A speed= 3.6x    frame=33879 fps= 86 q=-0.0 size=N/A time=00:23:33.03 bitrate=N/A speed= 3.6x    frame=33923 fps= 86 q=-0.0 size=N/A time=00:23:34.87 bitrate=N/A speed= 3.6x    frame=33967 fps= 86 q=-0.0 size=N/A time=00:23:36.70 bitrate=N/A speed= 3.6x    frame=34009 fps= 86 q=-0.0 size=N/A time=00:23:38.45 bitrate=N/A speed= 3.6x    frame=34053 fps= 86 q=-0.0 size=N/A time=00:23:40.29 bitrate=N/A speed= 3.6x    frame=34097 fps= 86 q=-0.0 size=N/A time=00:23:42.12 bitrate=N/A speed= 3.6x    frame=34139 fps= 86 q=-0.0 size=N/A time=00:23:43.88 bitrate=N/A speed= 3.6x    frame=34182 fps= 86 q=-0.0 size=N/A time=00:23:45.67 bitrate=N/A speed= 3.6x    frame=34225 fps= 86 q=-0.0 size=N/A time=00:23:47.46 bitrate=N/A speed= 3.6x    frame=34268 fps= 86 q=-0.0 size=N/A time=00:23:49.26 bitrate=N/A speed= 3.6x    frame=34311 fps= 86 q=-0.0 size=N/A time=00:23:51.05 bitrate=N/A speed= 3.6x    frame=34355 fps= 86 q=-0.0 size=N/A time=00:23:52.88 bitrate=N/A speed= 3.6x    frame=34400 fps= 86 q=-0.0 size=N/A time=00:23:54.76 bitrate=N/A speed= 3.6x    frame=34442 fps= 86 q=-0.0 size=N/A time=00:23:56.51 bitrate=N/A speed= 3.6x    frame=34486 fps= 86 q=-0.0 size=N/A time=00:23:58.35 bitrate=N/A speed= 3.6x    frame=34529 fps= 86 q=-0.0 size=N/A time=00:24:00.14 bitrate=N/A speed= 3.6x    frame=34571 fps= 86 q=-0.0 size=N/A time=00:24:01.89 bitrate=N/A speed= 3.6x    frame=34615 fps= 86 q=-0.0 size=N/A time=00:24:03.73 bitrate=N/A speed= 3.6x    frame=34657 fps= 86 q=-0.0 size=N/A time=00:24:05.48 bitrate=N/A speed= 3.6x    frame=34702 fps= 86 q=-0.0 size=N/A time=00:24:07.36 bitrate=N/A speed= 3.6x    frame=34745 fps= 86 q=-0.0 size=N/A time=00:24:09.15 bitrate=N/A speed= 3.6x    frame=34790 fps= 86 q=-0.0 size=N/A time=00:24:11.03 bitrate=N/A speed= 3.6x    frame=34832 fps= 86 q=-0.0 size=N/A time=00:24:12.78 bitrate=N/A speed= 3.6x    frame=34874 fps= 86 q=-0.0 size=N/A time=00:24:14.53 bitrate=N/A speed= 3.6x    frame=34920 fps= 86 q=-0.0 size=N/A time=00:24:16.45 bitrate=N/A speed= 3.6x    frame=34964 fps= 86 q=-0.0 size=N/A time=00:24:18.29 bitrate=N/A speed= 3.6x    frame=35006 fps= 86 q=-0.0 size=N/A time=00:24:20.04 bitrate=N/A speed= 3.6x    frame=35050 fps= 86 q=-0.0 size=N/A time=00:24:21.87 bitrate=N/A speed= 3.6x    frame=35093 fps= 86 q=-0.0 size=N/A time=00:24:23.67 bitrate=N/A speed= 3.6x    frame=35136 fps= 86 q=-0.0 size=N/A time=00:24:25.46 bitrate=N/A speed= 3.6x    frame=35179 fps= 86 q=-0.0 size=N/A time=00:24:27.25 bitrate=N/A speed= 3.6x    frame=35222 fps= 86 q=-0.0 size=N/A time=00:24:29.05 bitrate=N/A speed= 3.6x    frame=35267 fps= 86 q=-0.0 size=N/A time=00:24:30.92 bitrate=N/A speed= 3.6x    frame=35311 fps= 86 q=-0.0 size=N/A time=00:24:32.76 bitrate=N/A speed= 3.6x    frame=35352 fps= 86 q=-0.0 size=N/A time=00:24:34.47 bitrate=N/A speed= 3.6x    frame=35396 fps= 86 q=-0.0 size=N/A time=00:24:36.30 bitrate=N/A speed= 3.6x    frame=35441 fps= 86 q=-0.0 size=N/A time=00:24:38.18 bitrate=N/A speed= 3.6x    frame=35484 fps= 86 q=-0.0 size=N/A time=00:24:39.97 bitrate=N/A speed= 3.6x    frame=35526 fps= 86 q=-0.0 size=N/A time=00:24:41.73 bitrate=N/A speed= 3.6x    frame=35570 fps= 86 q=-0.0 size=N/A time=00:24:43.56 bitrate=N/A speed= 3.6x    frame=35611 fps= 86 q=-0.0 size=N/A time=00:24:45.27 bitrate=N/A speed= 3.6x    [Parsed_libvmaf_10 @ 0000027841309680] VMAF score: 95.478320
[out#0/null @ 000002783f63ee80] video:15314KiB audio:278812KiB subtitle:0KiB other streams:0KiB global headers:0KiB muxing overhead: unknown
frame=35639 fps= 86 q=-0.0 Lsize=N/A time=00:24:46.44 bitrate=N/A speed=3.58x    
